<?xml version="1.0" encoding="utf-8"?>
<!-- Generator: Adobe Illustrator 27.5.0, SVG Export Plug-In . SVG Version: 6.00 Build 0)  -->
<svg version="1.1" id="Calque_1" xmlns="http://www.w3.org/2000/svg" xmlns:xlink="http://www.w3.org/1999/xlink" x="0px" y="0px"
	 viewBox="0 0 1000 1000" style="enable-background:new 0 0 1000 1000;" xml:space="preserve">
<style type="text/css">
	.st0{fill:#225077;}
	.st1{fill:#FFFFFF;}
	.st2{filter:url(#Adobe_OpacityMaskFilter);}
	
		.st3{mask:url(#_x30_5f6c739-287c-4b8f-a388-cc5f0af96ce5_00000181801537305089680260000003556653104157658016_);fill:url(#SVGID_1_);}
	.st4{filter:url(#Adobe_OpacityMaskFilter_00000111890187564048778540000008088292612607887283_);}
	
		.st5{mask:url(#_x35_ec4f94f-29fc-48a8-a18a-d240e2d0e5b3_00000152949239266487679480000003871727456223453069_);fill:url(#SVGID_00000085950599085233905480000003956301192927045048_);}
	.st6{display:none;fill:none;}
</style>
<g transform="matrix(0.4444444444444444,0,0,0.4444444444444444,555.5555726891902,250)">
	<g id="tight-bounds" transform="matrix(1,0,0,1,-0.0000020560361235766322,0)">
		<g>
			<g>
				<path class="st0" d="M-99,1334.5c-8.8-11-17.6-4.4-17.6-11c-52.7,13.2-151.4-21.9-193.1-17.6c8.8-13.2-13.2-11-13.2-19.7
					c-8.8,13.2-17.6,0-30.7,4.4c-13.2-32.9-65.8-8.8-72.4-50.5c-30.7,0-41.7-17.6-72.4-35.1c2.2-2.2,4.4-2.2,6.6-4.4
					c-15.4-2.2-15.4-11-28.5-11l4.4-8.8c-24.1-4.4-32.9-41.7-68-54.9c-11-2.2-35.1-39.5-48.3-48.3c-6.6-4.4-17.6-4.4-2.2-6.6
					c-2.2-2.2-2.2-6.6,0-8.8c-15.4-4.4-17.6-17.6-37.3-24.1c-2.2-6.6,4.4-11,0-15.4c-4.4-2.2-11,2.2-15.4,0
					c-2.2,39.5,41.7,43.9,54.9,76.8c-4.4-4.4-11-17.6-15.4-8.8c-2.2,6.6,17.6,30.7,17.6,17.6c-6.6,4.4-8.8-6.6-4.4-8.8
					c6.6,11,19.7,8.8,19.7,17.6c-6.6,6.6-15.4-6.6-13.2,4.4c19.7,11,17.6,21.9,28.5,37.3c-8.8-11-11,8.8-19.7,0
					c-2.2-32.9-39.5-26.3-39.5-59.2c-4.4-11-8.8-2.2-15.4-6.6c8.8-8.8-26.3-39.5-26.3-28.5c-11-13.2-4.4-17.6-6.6-26.3
					c-8.8-2.2-2.2,8.8-8.8,2.2c8.8-15.4-11-35.1-24.1-50.5l8.8-4.4c-15.4-8.8-17.6-26.3-28.5-46.1c-13.2,19.7,26.3,63.6,19.7,72.4
					c0,2.2,15.4,19.7,19.7,28.5c17.6,30.7,30.7,68,54.9,85.6c-4.4-2.2-2.2-15.4,4.4-8.8c0,6.6-4.4,13.2-4.4,19.7
					c13.2,13.2,24.1,24.1,37.3,37.3c-28.5-17.6-57-35.1-76.8-61.4c11-2.2,21.9,17.6,30.7,15.4c-21.9-17.6-15.4-24.1-24.1-46.1
					c-8.8-6.6,2.2,8.8-6.6,11c-28.5-26.3-50.5-41.7-63.6-65.8c2.2-2.2,4.4-4.4,4.4-8.8c-2.2-2.2-2.2-2.2-4.4-4.4
					c13.2,13.2,17.6,24.1,32.9,26.3c-6.6-6.6,0-8.8-8.8-15.4c-4.4-8.8-11,4.4-15.4-2.2c4.4-6.6,0-15.4,0-21.9c-4.4,0-8.8,0-11-6.6
					c-4.4-2.2-6.6,0-8.8,4.4c-2.2-2.2-2.2-6.6-4.4-8.8v-2.2c-2.2-2.2-4.4-6.6-6.6-8.8c-17.6-46.1-28.5-107.5-52.7-147
					c6.6-26.3-4.4-79-11-92.2c6.6-11,2.2-61.4-2.2-70.2c-11,4.4,2.2,28.5-8.8,35.1c-11-48.3,6.6-103.1,2.2-147c4.4,0,8.8,0,8.8-2.2
					c-6.6-6.6,4.4-19.7,2.2-35.1c8.8-19.7-19.7,28.5-19.7,48.3c-2.2,4.4-11,0-8.8,11c0,15.4,4.4,46.1-4.4,68c-4.4,0-4.4-4.4-8.8-2.2
					c-2.2,11-4.4,24.1-6.6,35.1c-2.2-4.4-4.4-11-4.4-13.2c-11-54.9,0-118.5-4.4-164.6c8.8,0,8.8-13.2,15.4-17.6
					c-2.2,17.6-6.6,39.5,4.4,43.9c8.8-85.6,26.3-179.9,65.8-272.1c28.5-68,70.2-136,120.7-190.9c4.4,6.6-2.2,21.9,0,28.5
					C-658.5,48.7-630-6.1-581.8-36.8c2.2,11-19.7,19.7-19.7,28.5c19.7-19.7,26.3-13.2,48.3-19.7c6.6-8.8-8.8,0-11-8.8
					c13.2-8.8,21.9-19.7,30.7-26.3c0,2.2-2.2,2.2-2.2,4.4c24.1-6.6,26.3-19.7,43.9-24.1c-2.2-2.2-6.6-4.4-13.2-2.2
					c4.4-2.2,11-6.6,17.6-8.8c-2.2,0-2.2,2.2-4.4,2.2c13.2-6.6,2.2,2.2,2.2,6.6c2.2,0,4.4-2.2,4.4-2.2
					c-13.2,8.8-21.9,13.2-26.3,28.5c6.6-4.4,8.8,0,17.6-6.6c8.8-4.4-2.2-11,4.4-15.4c6.6,4.4,15.4,2.2,21.9,2.2
					c0-4.4,2.2-8.8,6.6-11c2.2-4.4,0-6.6-2.2-6.6c2.2-2.2,4.4-2.2,8.8-4.4c0,0,2.2,0,2.2,2.2c37.3-17.6,79-32.9,118.5-46.1
					c24.1-2.2,54.9-2.2,68-17.6c-4.4,0-8.8,2.2-11,0c2.2,0,6.6-2.2,8.8-2.2c4.4,4.4,11,0,4.4,8.8c2.2,0,2.2,0,4.4-2.2
					c0,2.2,0,2.2,2.2,4.4c2.2,0,4.4-2.2,6.6-6.6c2.2,0,4.4,0,6.6-2.2l-2.2,2.2c17.6-4.4,32.9-2.2,57-6.6c0-2.2,0-4.4,0-6.6
					c4.4,0,6.6-2.2,11-2.2v2.2c8.8-4.4,17.6,4.4,17.6,0c2.2,0,2.2,0,4.4,0c0,4.4-2.2,6.6-2.2,8.8c11,0,17.6,0,21.9-6.6
					c-2.2-2.2-4.4-2.2-6.6-2.2c4.4,0,8.8-2.2,13.2-4.4c6.6,2.2,8.8,4.4,8.8,13.2c11-19.7,46.1,4.4,61.4,0c6.6,0,4.4-8.8,8.8-13.2
					c2.2,0,4.4,0,6.6,0c11,8.8,26.3,17.6,46.1,19.7c-17.6-4.4,2.2-6.6,4.4-8.8c-4.4,0-4.4-2.2-4.4-4.4c6.6,0,13.2,2.2,19.7,2.2
					c0,4.4,2.2,6.6,6.6,6.6s4.4-2.2,4.4-6.6c6.6,0,11,0,17.6,2.2c-2.2,8.8,11,11,15.4,17.6c-17.6-4.4-37.3-11-43.9,0
					c70.2,15.4,147,37.3,221.6,74.6c0,0,0,0,0,2.2h2.2c13.2,6.6,26.3,13.2,39.5,19.7c8.8,4.4,15.4,8.8,24.1,15.4
					c0,2.2,0,4.4,4.4,4.4h2.2c8.8,6.6,17.6,11,26.3,17.6c8.8,13.2,17.6,30.7,32.9,26.3c32.9,50.5,68,70.2,96.5,122.9
					c2.2-8.8,8.8,19.7,19.7,21.9c-17.6-2.2,11,11-6.6,8.8c15.4,15.4,19.7,21.9,21.9,39.5c-4.4-8.8-6.6-11-8.8-2.2
					c-2.2,13.2,15.4-2.2,21.9,11c-13.2,0-8.8,8.8-6.6,19.7c6.6-6.6,4.4-13.2,11-11c8.8,8.8-4.4,11-2.2,17.6c6.6-8.8,8.8-4.4,17.6,0
					c-11,2.2,6.6,17.6-6.6,11c8.8,11,11,17.6,6.6,28.5c-8.8-13.2-2.2-21.9-15.4-19.7c26.3,21.9,13.2,72.4,43.9,76.8
					c-19.7,4.4,0,13.2-11,15.4c13.2,4.4,6.6,21.9,21.9,26.3c-2.2,11-6.6,17.6-8.8,28.5c6.6,8.8,8.8,26.3,19.7,28.5
					c-6.6,6.6-2.2,24.1-8.8,30.7c8.8-4.4,13.2-4.4,19.7,4.4c-11,8.8-2.2,17.6-8.8,19.7c19.7,50.5-4.4,153.6,6.6,193.1
					c-13.2-6.6-8.8,15.4-17.6,15.4c15.4,6.6,2.2,17.6,8.8,28.5c-30.7,17.6,0,65.8-41.7,76.8c4.4,30.7-13.2,43.9-26.3,76.8
					c-2.2-2.2-2.2-4.4-4.4-6.6c-2.2,15.4-11,17.6-6.6,30.7l-8.8-4.4c0,24.1-37.3,37.3-46.1,74.6c-2.2,11-35.1,39.5-43.9,54.9
					c-4.4,6.6-2.2,17.6-6.6,2.2c-2.2,2.2-6.6,2.2-8.8,2.2c-2.2,15.4-15.4,19.7-19.7,39.5c-4.4,2.2-11-4.4-15.4,2.2
					c0,4.4,4.4,11,2.2,15.4c39.5-2.2,39.5-48.3,70.2-63.6c-2.2,6.6-15.4,13.2-6.6,17.6c6.6,0,26.3-21.9,15.4-19.7
					c6.6,4.4-6.6,8.8-8.8,6.6c11-8.8,6.6-19.7,15.4-21.9c6.6,4.4-6.6,15.4,6.6,13.2c8.8-19.7,19.7-21.9,32.9-32.9
					c-8.8,8.8,11,11,2.2,19.7c-32.9,6.6-21.9,43.9-54.9,48.3c-8.8,6.6-2.2,8.8-4.4,15.4c-11-6.6-35.1,30.7-26.3,28.5
					c-11,11-17.6,6.6-26.3,8.8c-2.2,8.8,8.8,2.2,4.4,8.8c-15.4-6.6-35.1,15.4-48.3,30.7l-6.6-6.6c-6.6,17.6-24.1,19.7-43.9,32.9
					c21.9,11,59.2-35.1,70.2-28.5c2.2,0,19.7-17.6,26.3-24.1c28.5-21.9,63.6-39.5,76.8-63.6c-2.2,4.4-15.4,4.4-8.8-2.2
					c6.6-2.2,13.2,2.2,19.7,2.2c35.1-48.3,79-87.8,111.9-144.8c2.2-2.2,4.4-6.6,6.6-11c-4.4,13.2-11,24.1-15.4,37.3
					c-35.1,24.1-48.3,94.3-90,105.3c2.2,24.1-19.7,30.7-30.7,59.2c-6.6,8.8-11-6.6-17.6,4.4c6.6,30.7-54.9,28.5-52.7,57
					c-4.4,2.2-11,4.4-15.4,8.8h-2.2c-2.2,2.2-2.2,2.2-4.4,4.4c-11,6.6-19.7,13.2-28.5,19.7c-30.7,17.6-72.4,30.7-105.3,48.3v-2.2
					c-8.8,4.4-19.7,2.2-17.6,11c-6.6,4.4-13.2,8.8-19.7,13.2c-2.2,0-2.2,0-4.4,0c0,0-2.2-2.2-4.4-2.2c-4.4,0-4.4,0-6.6,2.2
					c-28.5,2.2-65.8,15.4-76.8,24.1c-11-6.6-61.4,4.4-70.2,8.8c4.4,6.6,17.6,0,28.5,0c-6.6,2.2-13.2,4.4-15.4,8.8
					c-2.2,0-2.2,0-4.4,0c-2.2-6.6-8.8,0-11-2.2H26c-2.2-8.8-8.8-13.2-19.7-11c0,4.4,0,6.6-2.2,11c4.4,0,17.6-6.6,17.6,0
					c-2.2,0-2.2,2.2,0,2.2c-4.4,4.4-11,4.4-15.4,6.6c-8.8,0-19.7,0-28.5,0c-2.2-2.2-4.4-2.2-8.8-4.4c-2.2,2.2-6.6,2.2-8.8,4.4
					c-13.2,0-28.5,2.2-39.5,4.4c0-4.4,0-8.8-4.4-8.8c-6.6,8.8-19.7-2.2-35.1,2.2c-15.4-4.4,8.8,6.6,30.7,11
					C-90.3,1330.1-92.5,1332.3-99,1334.5 M-406.2,1365.2c-30.7-28.5-94.3-41.7-105.3-63.6c-17.6-2.2-43.9-35.1-65.8-39.5
					c11,0,2.2-6.6,0-11c-4.4,4.4-8.8,6.6-13.2,6.6c0-17.6-17.6-28.5-32.9-39.5c11,6.6,19.7,11,32.9,13.2c0-4.4,0-8.8,4.4-8.8
					c15.4,15.4,32.9,30.7,52.7,46.1c26.3,24.1,162.4,85.6,186.5,96.5c0,0-4.4,8.8-2.2,8.8c11,6.6,19.7-6.6,21.9,8.8
					C-362.3,1387.2-375.5,1363-406.2,1365.2 M605.3,856.2v2.2l0,0C603.1,858.4,605.3,856.2,605.3,856.2 M-281.2-159.7
					c-2.2,2.2-4.4,2.2-4.4,2.2C-285.5-159.7-283.3-159.7-281.2-159.7 M-322.8-148.7C-322.8-146.5-322.8-146.5-322.8-148.7
					C-322.8-146.5-322.8-146.5-322.8-148.7C-322.8-146.5-322.8-148.7-322.8-148.7 M-467.7-102.7L-467.7-102.7
					c2.2-2.2,2.2-2.2,4.4-2.2C-465.5-104.9-467.7-102.7-467.7-102.7 M-116.6-175.1c-4.4,0-6.6,0-8.8-2.2c2.2,0,4.4,0,6.6,0h2.2
					C-116.6-177.3-116.6-177.3-116.6-175.1 M-77.1-170.7c-2.2-2.2-8.8-4.4-15.4-4.4c0-2.2,2.2-4.4,2.2-4.4c2.2,0,4.4,0,6.6,0
					c0,0,2.2,0,2.2,2.2c0,0,0,0,0-2.2c2.2,0,2.2,0,4.4,0C-74.9-175.1-72.7-172.9-77.1-170.7 M-4.7-164.1c-11,2.2-17.6-2.2-28.5-8.8
					c6.6,0,15.4,2.2,21.9,4.4C-9.1-168.5-6.9-166.3-4.7-164.1 M776.4,147.5c-4.4,2.2-6.6,2.2-11-6.6
					c-35.1-74.6-98.7-182.1-190.9-272.1c-90-92.2-210.6-166.8-320.3-206.3c6.6,2.2,15.4,6.6,11,11c-96.5-37.3-188.7-59.2-276.5-68
					c-237-37.3-484.9,13.2-675.8,136c2.2,4.4,2.2,6.6-4.4,11c-70.2,43.9-169,120.7-247.9,221.6s-140.4,228.2-166.8,342.3
					c2.2-6.6,4.4-17.6,8.8-13.2c-57,226-41.7,419.1,37.3,585.8c4.4-4.4-11-26.3,2.2-24.1c8.8,24.1,19.7,50.5,32.9,74.6
					c15.4,35.1,32.9,81.2,57,92.2c-61.4-120.7-103.1-258.9-107.5-381.8c8.8,17.6,6.6,54.9,19.7,70.2c4.4-83.4-15.4-195.3,13.2-274.3
					c-6.6,41.7-11,98.7-6.6,155.8c0,41.7,19.7,158,32.9,169c-2.2-2.2-2.2-13.2,0-13.2c6.6,13.2-8.8,19.7,2.2,21.9
					c0-4.4,2.2-4.4,4.4-4.4c21.9,48.3,50.5,122.9,72.4,160.2c26.3,48.3,61.4,92.2,100.9,131.6c0,2.2,2.2,2.2,2.2,4.4
					c4.4,11,19.7,24.1,24.1,32.9c2.2,4.4-2.2,11,0,15.4c32.9,61.4,81.2,122.9,140.4,171.1c37.3,43.9,96.5,90,169,129.5
					c70.2,37.3,151.4,68,226,85.6c52.7,13.2,116.3,15.4,155.8,24.1c52.7,11,144.8-4.4,190.9-13.2c276.5-41.7,550.7-230.4,689-502.5
					C903.7,739.9,899.3,404.2,776.4,147.5"/>
			</g>
			<g transform="matrix(1,0,0,1,80,133.24867864705163)">
				<g>
					<g>
						<g transform="matrix(1,0,0,1,0,59.96300189599975)">
							<g id="textblocktransform">
								<g>
									<g transform="matrix(1,0,0,1,0,0)">
										<g id="text-0">
										</g>
									</g>
								</g>
							</g>
						</g>
					</g>
				</g>
			</g>
		</g>
		<g id="SvgjsG1006">
			<g>
				<g transform="matrix(1,0,0,1,80,133.24867864705163)">
					<g>
						<g>
							<g transform="matrix(1,0,0,1,0,59.96300189599975)">
								<g id="SvgjsG1005">
									<g>
										<g transform="matrix(1,0,0,1,0,0)">
											<g transform="matrix(1,0,0,1,0,0)">
												<g>
													<path id="SvgjsPath1002" class="st1" d="M-248.9,269.9h5l4.2,7.1h0.2l4.2-7.1h5l-6.4,10.5l6.5,10.5h-5.1l-4.3-7.1h-0.2
														l-4.3,7.1h-5.1l6.5-10.5L-248.9,269.9z M-214.1,290.8h-13.4v-20.9h4.4v17.3h9V290.8z"/>
												</g>
											</g>
											<g id="SvgjsG1001">
												<path class="st1" d="M-651.1,291.9h-18v36h18c2.5,0,4.8-0.5,7-1.4c2.2-0.9,4.1-2.2,5.7-3.9c1.6-1.6,2.9-3.5,3.9-5.7
													c0.9-2.2,1.4-4.5,1.4-7l0,0c0-2.5-0.5-4.8-1.4-7c-0.9-2.2-2.2-4.1-3.9-5.7c-1.6-1.6-3.5-2.9-5.7-3.9
													C-646.3,292.3-648.6,291.9-651.1,291.9z M-669.1,345.8v18h-18v-89.9h36c3.3,0,6.5,0.4,9.5,1.3c3,0.9,5.9,2.1,8.5,3.6
													c2.7,1.6,5.1,3.4,7.3,5.6c2.2,2.2,4.1,4.6,5.6,7.3c1.6,2.7,2.8,5.5,3.6,8.6c0.9,3.1,1.3,6.2,1.3,9.5l0,0
													c0,3.1-0.4,6.1-1.2,9c-0.8,2.9-1.9,5.7-3.3,8.3c-1.4,2.6-3.2,5-5.3,7.3c-2.1,2.2-4.4,4.1-7,5.8l0,0l10,23.5h-19.1
													l-7.8-18.1L-669.1,345.8z M-547.2,308.7l-32.1,38.7c0.7,0.2,1.3,0.4,2,0.4c0.7,0.1,1.3,0.1,2,0.1l0,0
													c1.7,0,3.3-0.2,4.8-0.7s3-1.1,4.4-2c1.4-0.9,2.6-1.9,3.6-3.1c1.1-1.2,2-2.6,2.6-4.1l0,0l12.5,12.6
													c-1.6,2.3-3.4,4.3-5.5,6.1c-2.1,1.8-4.3,3.3-6.7,4.6c-2.4,1.3-4.9,2.2-7.6,2.8c-2.7,0.6-5.4,1-8.2,1l0,0
													c-4.7,0-9.2-0.9-13.3-2.6c-4.2-1.7-7.8-4.2-10.9-7.3c-3.1-3.1-5.6-6.9-7.4-11.2c-1.8-4.3-2.7-9.1-2.7-14.3l0,0
													c0-5.3,0.9-10.1,2.7-14.5c1.8-4.4,4.3-8.1,7.4-11.2c3.1-3.1,6.7-5.5,10.9-7.2c4.2-1.7,8.6-2.6,13.3-2.6l0,0
													c2.8,0,5.5,0.3,8.2,1c2.7,0.7,5.2,1.6,7.6,2.9c2.4,1.3,4.6,2.8,6.7,4.6S-548.7,306.4-547.2,308.7z M-590.4,338.5
													l19.9-26.4c-0.8-0.3-1.6-0.5-2.4-0.6c-0.8-0.1-1.6-0.1-2.4-0.1l0,0c-2.3,0-4.5,0.4-6.6,1.3c-2.1,0.9-3.9,2.1-5.4,3.7
													c-1.5,1.6-2.7,3.5-3.6,5.7c-0.9,2.2-1.3,4.8-1.3,7.5l0,0c0,0.6,0,1.3,0.1,2.1c0.1,0.8,0.2,1.6,0.3,2.4
													c0.1,0.8,0.3,1.6,0.5,2.4C-591,337.2-590.7,337.9-590.4,338.5z M-521.3,269.9v93.8h-17.3v-93.8H-521.3z M-443.4,329.6
													L-443.4,329.6c0,5-0.9,9.7-2.7,14c-1.8,4.3-4.2,8.1-7.3,11.2c-3.1,3.1-6.7,5.6-10.9,7.5c-4.2,1.8-8.6,2.7-13.4,2.7l0,0
													c-4.7,0-9.2-0.9-13.3-2.7c-4.2-1.8-7.8-4.3-10.9-7.5c-3.1-3.1-5.5-6.9-7.3-11.2c-1.8-4.3-2.7-9-2.7-14l0,0
													c0-5.1,0.9-9.8,2.7-14.1c1.8-4.3,4.2-8.1,7.3-11.3c3.1-3.1,6.8-5.6,10.9-7.4s8.6-2.7,13.3-2.7l0,0
													c4.8,0,9.2,0.8,13.4,2.5c4.2,1.7,7.8,4.1,10.9,7.2c3.1,3.1,5.5,6.9,7.3,11.2C-444.3,319.4-443.4,324.2-443.4,329.6z
													 M-460.7,329.6L-460.7,329.6c0-2.8-0.4-5.2-1.3-7.5c-0.9-2.2-2.1-4.2-3.7-5.8c-1.6-1.6-3.4-2.8-5.4-3.7
													c-2.1-0.9-4.3-1.3-6.6-1.3l0,0c-2.3,0-4.6,0.4-6.6,1.3c-2.1,0.9-3.9,2.1-5.4,3.7c-1.5,1.6-2.7,3.5-3.6,5.8
													c-0.9,2.2-1.3,4.7-1.3,7.5l0,0c0,2.6,0.4,5,1.3,7.2c0.9,2.2,2.1,4.2,3.6,5.8c1.5,1.6,3.3,2.9,5.4,3.9
													c2.1,0.9,4.3,1.4,6.6,1.4l0,0c2.3,0,4.6-0.4,6.6-1.3c2.1-0.9,3.9-2.1,5.4-3.7c1.5-1.6,2.8-3.5,3.7-5.8
													C-461.1,334.8-460.7,332.3-460.7,329.6z M-369,296.8v67h-4.1l-6.6-9.2c-1.6,1.5-3.3,2.8-5.2,4.1
													c-1.8,1.3-3.7,2.4-5.8,3.3c-2,0.9-4.1,1.7-6.2,2.2c-2.1,0.5-4.3,0.8-6.4,0.8l0,0c-4.7,0-9.1-0.8-13.3-2.4
													c-4.2-1.6-7.8-3.9-10.9-6.9c-3.1-3-5.6-6.7-7.4-11.1c-1.8-4.4-2.7-9.4-2.7-15l0,0c0-5.2,0.9-10,2.7-14.4
													c1.8-4.4,4.3-8.1,7.4-11.2c3.1-3.1,6.8-5.6,10.9-7.3c4.2-1.7,8.6-2.6,13.3-2.6l0,0c2.2,0,4.3,0.3,6.5,0.8
													c2.1,0.5,4.2,1.3,6.2,2.3c2,1,3.9,2.1,5.7,3.4c1.8,1.3,3.5,2.7,5.1,4.2l0,0l6.6-8H-369z M-386.2,329.6L-386.2,329.6
													c0-2.3-0.4-4.6-1.3-6.8c-0.9-2.2-2.1-4.2-3.7-5.9c-1.5-1.7-3.3-3-5.4-4.1s-4.3-1.5-6.6-1.5l0,0c-2.3,0-4.5,0.4-6.6,1.2
													c-2.1,0.8-3.9,2-5.4,3.5c-1.5,1.5-2.7,3.4-3.6,5.7c-0.9,2.3-1.3,4.9-1.3,7.8l0,0c0,2.9,0.4,5.5,1.3,7.8
													c0.9,2.3,2.1,4.2,3.6,5.8c1.5,1.5,3.3,2.7,5.4,3.5c2.1,0.8,4.3,1.2,6.6,1.2l0,0c2.3,0,4.6-0.5,6.6-1.5
													c2.1-1,3.9-2.4,5.4-4.1c1.5-1.7,2.8-3.6,3.7-5.8C-386.7,334.2-386.2,331.9-386.2,329.6z M-291.1,269.9v93.8h-4.2
													l-6.6-9.2c-1.6,1.5-3.4,2.8-5.2,4.1c-1.8,1.3-3.7,2.4-5.7,3.3c-2,0.9-4.1,1.7-6.2,2.2c-2.1,0.5-4.2,0.8-6.4,0.8l0,0
													c-4.7,0-9.2-0.9-13.3-2.7c-4.2-1.8-7.8-4.2-10.9-7.4c-3.1-3.1-5.5-6.9-7.3-11.2c-1.8-4.3-2.7-9-2.7-14.1l0,0
													c0-5,0.9-9.7,2.7-14.1c1.8-4.3,4.2-8.1,7.3-11.3c3.1-3.2,6.8-5.7,10.9-7.5c4.2-1.8,8.6-2.7,13.3-2.7l0,0
													c1.5,0,3.1,0.1,4.7,0.4c1.6,0.2,3.2,0.6,4.7,1.2c1.5,0.6,3,1.3,4.3,2.2c1.3,0.9,2.5,2.1,3.4,3.4l0,0v-31.3H-291.1z
													 M-308.3,329.6L-308.3,329.6c0-2.3-0.4-4.6-1.3-6.8c-0.9-2.2-2.1-4.2-3.7-5.9c-1.6-1.7-3.4-3-5.4-4.1
													c-2.1-1-4.3-1.5-6.6-1.5l0,0c-2.3,0-4.6,0.4-6.6,1.3c-2.1,0.8-3.8,2-5.4,3.6c-1.5,1.6-2.7,3.5-3.6,5.8
													c-0.9,2.2-1.3,4.8-1.3,7.6l0,0c0,2.5,0.4,4.8,1.3,7c0.9,2.2,2.1,4.2,3.6,5.8c1.5,1.7,3.3,3,5.4,4c2.1,1,4.3,1.4,6.6,1.4
													l0,0c2.3,0,4.6-0.5,6.6-1.5c2.1-1,3.9-2.4,5.4-4.1c1.5-1.7,2.8-3.6,3.7-5.8C-308.8,334.2-308.3,331.9-308.3,329.6z"/>
												<path class="st1" d="M-693.7,433.5v35.9h-18v-89.9h62.9v18h-44.9v18h27v18H-693.7z M-590.4,414.4l-32.1,38.7
													c0.7,0.2,1.3,0.4,2,0.4c0.7,0.1,1.3,0.1,2,0.1l0,0c1.7,0,3.3-0.2,4.8-0.7s3-1.1,4.4-2c1.4-0.9,2.6-1.9,3.6-3.1
													c1.1-1.2,2-2.6,2.6-4.1l0,0l12.5,12.6c-1.6,2.3-3.4,4.3-5.5,6.1c-2.1,1.8-4.3,3.3-6.7,4.6c-2.4,1.3-4.9,2.2-7.6,2.8
													c-2.7,0.6-5.4,1-8.2,1l0,0c-4.7,0-9.2-0.9-13.3-2.6c-4.2-1.7-7.8-4.2-10.9-7.3c-3.1-3.1-5.5-6.9-7.3-11.2
													c-1.8-4.3-2.7-9.1-2.7-14.3l0,0c0-5.3,0.9-10.1,2.7-14.5c1.8-4.4,4.2-8.1,7.3-11.2c3.1-3.1,6.8-5.5,10.9-7.2
													c4.2-1.7,8.6-2.6,13.3-2.6l0,0c2.8,0,5.5,0.3,8.2,1s5.2,1.6,7.6,2.9c2.4,1.3,4.6,2.8,6.7,4.6
													C-593.8,410.1-592,412.1-590.4,414.4z M-633.6,444.2l19.9-26.4c-0.8-0.3-1.6-0.5-2.4-0.6c-0.8-0.1-1.6-0.1-2.4-0.1l0,0
													c-2.3,0-4.5,0.4-6.6,1.3c-2.1,0.9-3.9,2.1-5.4,3.7c-1.5,1.6-2.7,3.5-3.6,5.7c-0.9,2.2-1.3,4.8-1.3,7.5l0,0
													c0,0.6,0,1.3,0.1,2.1c0.1,0.8,0.2,1.6,0.3,2.4c0.1,0.8,0.3,1.6,0.5,2.4C-634.2,443-634,443.6-633.6,444.2z
													 M-544.9,469.5L-544.9,469.5h-39.1v-17h39.1c1.2,0,2.2-0.4,3-1.3s1.3-1.8,1.3-3l0,0c0-1.2-0.4-2-1.3-2.4s-1.8-0.6-3-0.6
													l0,0h-17.8c-3,0-5.7-0.6-8.3-1.7c-2.6-1.1-4.9-2.7-6.8-4.6c-1.9-2-3.4-4.2-4.5-6.8c-1.1-2.6-1.7-5.4-1.7-8.3l0,0
													c0-3,0.6-5.7,1.7-8.3c1.1-2.6,2.6-4.9,4.5-6.8c1.9-1.9,4.2-3.4,6.8-4.5c2.6-1.1,5.4-1.7,8.3-1.7l0,0h34.7v17h-34.7
													c-1.2,0-2.2,0.4-3,1.3c-0.8,0.8-1.3,1.8-1.3,3l0,0c0,1.2,0.4,2.3,1.3,3.1s1.8,1.3,3,1.3l0,0h17.8c2.9,0,5.7,0.5,8.3,1.5
													c2.6,1,4.8,2.4,6.8,4.1c1.9,1.8,3.4,3.9,4.6,6.3c1.1,2.5,1.7,5.2,1.7,8.1l0,0c0,3-0.6,5.7-1.7,8.3
													c-1.1,2.6-2.7,4.8-4.6,6.8c-1.9,2-4.2,3.5-6.8,4.6C-539.3,468.9-542,469.5-544.9,469.5z M-467.9,469.5h-13
													c-4.1,0-8-0.8-11.7-2.4c-3.6-1.6-6.8-3.7-9.5-6.4c-2.7-2.7-4.9-5.9-6.5-9.5c-1.6-3.6-2.3-7.5-2.3-11.7l0,0v-19.9h-8.3
													v-17h8.3v-26.8h17v26.8h25.9v17h-25.9v19.9c0,1.8,0.3,3.5,1,5c0.7,1.6,1.6,2.9,2.7,4.1c1.2,1.2,2.5,2.1,4.1,2.8
													c1.6,0.7,3.3,1,5.1,1l0,0h13V469.5z M-438.2,384.1L-438.2,384.1c0,1.6-0.3,3.1-0.9,4.4c-0.6,1.4-1.4,2.6-2.5,3.6
													c-1,1-2.3,1.8-3.7,2.4c-1.4,0.6-2.9,0.9-4.5,0.9l0,0c-1.6,0-3.1-0.3-4.5-0.9c-1.4-0.6-2.6-1.4-3.6-2.4
													c-1-1-1.8-2.2-2.5-3.6c-0.6-1.4-0.9-2.8-0.9-4.4l0,0c0-1.6,0.3-3,0.9-4.4c0.6-1.4,1.4-2.6,2.5-3.6c1-1,2.2-1.8,3.6-2.4
													c1.4-0.6,2.9-0.9,4.5-0.9l0,0c1.6,0,3.1,0.3,4.5,0.9c1.4,0.6,2.6,1.4,3.7,2.4c1,1,1.9,2.2,2.5,3.6
													C-438.5,381.1-438.2,382.5-438.2,384.1z M-441.1,402.3v67.1h-17.2v-67.1H-441.1z M-391.8,469.5H-409l-25.6-67.1h19.5
													l14.7,41.9l14.6-41.9h19.5L-391.8,469.5z M-296.7,402.5v67h-4.1l-6.6-9.2c-1.6,1.5-3.3,2.8-5.2,4.1
													c-1.8,1.3-3.7,2.4-5.7,3.3c-2,0.9-4.1,1.7-6.2,2.2c-2.1,0.5-4.2,0.8-6.4,0.8l0,0c-4.7,0-9.2-0.8-13.3-2.4
													c-4.2-1.6-7.8-3.9-10.9-6.9c-3.1-3-5.6-6.7-7.4-11.1s-2.7-9.4-2.7-15l0,0c0-5.2,0.9-10,2.7-14.4
													c1.8-4.4,4.3-8.1,7.4-11.2c3.1-3.1,6.8-5.6,10.9-7.3c4.2-1.7,8.6-2.6,13.3-2.6l0,0c2.2,0,4.3,0.3,6.4,0.8
													c2.1,0.5,4.2,1.3,6.2,2.3c2,1,3.9,2.1,5.7,3.4c1.8,1.3,3.5,2.7,5.1,4.2l0,0l6.6-8H-296.7z M-313.9,435.3L-313.9,435.3
													c0-2.3-0.5-4.6-1.4-6.8c-0.9-2.2-2.1-4.2-3.6-5.9c-1.6-1.7-3.4-3-5.4-4.1c-2.1-1-4.3-1.5-6.6-1.5l0,0
													c-2.3,0-4.6,0.4-6.6,1.2c-2.1,0.8-3.9,2-5.4,3.5s-2.7,3.4-3.6,5.7c-0.9,2.3-1.3,4.9-1.3,7.8l0,0c0,2.9,0.4,5.5,1.3,7.8
													s2.1,4.2,3.6,5.8c1.5,1.5,3.3,2.7,5.4,3.5c2.1,0.8,4.3,1.2,6.6,1.2l0,0c2.3,0,4.5-0.5,6.6-1.5c2.1-1,3.9-2.4,5.4-4.1
													c1.5-1.7,2.8-3.6,3.6-5.8C-314.4,439.9-313.9,437.6-313.9,435.3z M-266.4,375.6v93.8h-17.2v-93.8H-266.4z"/>
											</g>
										</g>
									</g>
								</g>
							</g>
						</g>
					</g>
				</g>
			</g>
		</g>
		<defs>
			<filter id="Adobe_OpacityMaskFilter" filterUnits="userSpaceOnUse" x="-1131.6" y="-561.5" width="2000" height="2250">
				<feColorMatrix  type="matrix" values="1 0 0 0 0  0 1 0 0 0  0 0 1 0 0  0 0 0 1 0"/>
			</filter>
		</defs>
		
			<mask maskUnits="userSpaceOnUse" x="-1131.6" y="-561.5" width="2000" height="2250" id="_x30_5f6c739-287c-4b8f-a388-cc5f0af96ce5_00000181801537305089680260000003556653104157658016_">
			<g id="SvgjsG1006_00000010275045301925675100000002044355964761831564_" class="st2">
				<g>
				</g>
				<g>
					<g>
					</g>
					<g transform="matrix(1,0,0,1,80,133.24867864705163)">
						<g>
							<g>
								<g transform="matrix(1,0,0,1,0,59.96300189599975)">
									<g id="SvgjsG1005_00000147183031849647321040000002209400664299767225_">
										<g>
											<g transform="matrix(1,0,0,1,0,0)">
												<g transform="matrix(1,0,0,1,0,0)">
													<g>
														<path id="SvgjsPath1002_00000157305924940958764390000013373792518336108199_" class="st1" d="M-248.9,269.9h5
															l4.2,7.1h0.2l4.2-7.1h5l-6.4,10.5l6.5,10.5h-5.1l-4.3-7.1h-0.2l-4.3,7.1h-5.1l6.5-10.5L-248.9,269.9z M-214.1,290.8
															h-13.4v-20.9h4.4v17.3h9V290.8z"/>
													</g>
												</g>
												<g id="SvgjsG1001_00000095314009193010624740000004868576884681810074_">
													<path class="st1" d="M-651.1,291.9h-18v36h18c2.5,0,4.8-0.5,7-1.4c2.2-0.9,4.1-2.2,5.7-3.9c1.6-1.6,2.9-3.5,3.9-5.7
														c0.9-2.2,1.4-4.5,1.4-7l0,0c0-2.5-0.5-4.8-1.4-7c-0.9-2.2-2.2-4.1-3.9-5.7c-1.6-1.6-3.5-2.9-5.7-3.9
														C-646.3,292.3-648.6,291.9-651.1,291.9z M-669.1,345.8v18h-18v-89.9h36c3.3,0,6.5,0.4,9.5,1.3c3,0.9,5.9,2.1,8.5,3.6
														c2.7,1.6,5.1,3.4,7.3,5.6c2.2,2.2,4.1,4.6,5.6,7.3c1.6,2.7,2.8,5.5,3.6,8.6c0.9,3.1,1.3,6.2,1.3,9.5l0,0
														c0,3.1-0.4,6.1-1.2,9c-0.8,2.9-1.9,5.7-3.3,8.3c-1.4,2.6-3.2,5-5.3,7.3c-2.1,2.2-4.4,4.1-7,5.8l0,0l10,23.5h-19.1
														l-7.8-18.1L-669.1,345.8z M-547.2,308.7l-32.1,38.7c0.7,0.2,1.3,0.4,2,0.4c0.7,0.1,1.3,0.1,2,0.1l0,0
														c1.7,0,3.3-0.2,4.8-0.7s3-1.1,4.4-2c1.4-0.9,2.6-1.9,3.6-3.1c1.1-1.2,2-2.6,2.6-4.1l0,0l12.5,12.6
														c-1.6,2.3-3.4,4.3-5.5,6.1c-2.1,1.8-4.3,3.3-6.7,4.6c-2.4,1.3-4.9,2.2-7.6,2.8c-2.7,0.6-5.4,1-8.2,1l0,0
														c-4.7,0-9.2-0.9-13.3-2.6c-4.2-1.7-7.8-4.2-10.9-7.3c-3.1-3.1-5.6-6.9-7.4-11.2c-1.8-4.3-2.7-9.1-2.7-14.3l0,0
														c0-5.3,0.9-10.1,2.7-14.5c1.8-4.4,4.3-8.1,7.4-11.2c3.1-3.1,6.7-5.5,10.9-7.2c4.2-1.7,8.6-2.6,13.3-2.6l0,0
														c2.8,0,5.5,0.3,8.2,1c2.7,0.7,5.2,1.6,7.6,2.9c2.4,1.3,4.6,2.8,6.7,4.6S-548.7,306.4-547.2,308.7z M-590.4,338.5
														l19.9-26.4c-0.8-0.3-1.6-0.5-2.4-0.6c-0.8-0.1-1.6-0.1-2.4-0.1l0,0c-2.3,0-4.5,0.4-6.6,1.3c-2.1,0.9-3.9,2.1-5.4,3.7
														c-1.5,1.6-2.7,3.5-3.6,5.7c-0.9,2.2-1.3,4.8-1.3,7.5l0,0c0,0.6,0,1.3,0.1,2.1c0.1,0.8,0.2,1.6,0.3,2.4
														c0.1,0.8,0.3,1.6,0.5,2.4C-591,337.2-590.7,337.9-590.4,338.5z M-521.3,269.9v93.8h-17.3v-93.8H-521.3z M-443.4,329.6
														L-443.4,329.6c0,5-0.9,9.7-2.7,14c-1.8,4.3-4.2,8.1-7.3,11.2c-3.1,3.1-6.7,5.6-10.9,7.5c-4.2,1.8-8.6,2.7-13.4,2.7l0,0
														c-4.7,0-9.2-0.9-13.3-2.7c-4.2-1.8-7.8-4.3-10.9-7.5c-3.1-3.1-5.5-6.9-7.3-11.2c-1.8-4.3-2.7-9-2.7-14l0,0
														c0-5.1,0.9-9.8,2.7-14.1c1.8-4.3,4.2-8.1,7.3-11.3c3.1-3.1,6.8-5.6,10.9-7.4s8.6-2.7,13.3-2.7l0,0
														c4.8,0,9.2,0.8,13.4,2.5c4.2,1.7,7.8,4.1,10.9,7.2c3.1,3.1,5.5,6.9,7.3,11.2C-444.3,319.4-443.4,324.2-443.4,329.6z
														 M-460.7,329.6L-460.7,329.6c0-2.8-0.4-5.2-1.3-7.5c-0.9-2.2-2.1-4.2-3.7-5.8c-1.6-1.6-3.4-2.8-5.4-3.7
														c-2.1-0.9-4.3-1.3-6.6-1.3l0,0c-2.3,0-4.6,0.4-6.6,1.3c-2.1,0.9-3.9,2.1-5.4,3.7c-1.5,1.6-2.7,3.5-3.6,5.8
														c-0.9,2.2-1.3,4.7-1.3,7.5l0,0c0,2.6,0.4,5,1.3,7.2c0.9,2.2,2.1,4.2,3.6,5.8c1.5,1.6,3.3,2.9,5.4,3.9
														c2.1,0.9,4.3,1.4,6.6,1.4l0,0c2.3,0,4.6-0.4,6.6-1.3c2.1-0.9,3.9-2.1,5.4-3.7c1.5-1.6,2.8-3.5,3.7-5.8
														C-461.1,334.8-460.7,332.3-460.7,329.6z M-369,296.8v67h-4.1l-6.6-9.2c-1.6,1.5-3.3,2.8-5.2,4.1
														c-1.8,1.3-3.7,2.4-5.8,3.3c-2,0.9-4.1,1.7-6.2,2.2c-2.1,0.5-4.3,0.8-6.4,0.8l0,0c-4.7,0-9.1-0.8-13.3-2.4
														c-4.2-1.6-7.8-3.9-10.9-6.9c-3.1-3-5.6-6.7-7.4-11.1c-1.8-4.4-2.7-9.4-2.7-15l0,0c0-5.2,0.9-10,2.7-14.4
														c1.8-4.4,4.3-8.1,7.4-11.2c3.1-3.1,6.8-5.6,10.9-7.3c4.2-1.7,8.6-2.6,13.3-2.6l0,0c2.2,0,4.3,0.3,6.5,0.8
														c2.1,0.5,4.2,1.3,6.2,2.3c2,1,3.9,2.1,5.7,3.4c1.8,1.3,3.5,2.7,5.1,4.2l0,0l6.6-8H-369z M-386.2,329.6L-386.2,329.6
														c0-2.3-0.4-4.6-1.3-6.8c-0.9-2.2-2.1-4.2-3.7-5.9c-1.5-1.7-3.3-3-5.4-4.1s-4.3-1.5-6.6-1.5l0,0c-2.3,0-4.5,0.4-6.6,1.2
														c-2.1,0.8-3.9,2-5.4,3.5c-1.5,1.5-2.7,3.4-3.6,5.7c-0.9,2.3-1.3,4.9-1.3,7.8l0,0c0,2.9,0.4,5.5,1.3,7.8
														c0.9,2.3,2.1,4.2,3.6,5.8c1.5,1.5,3.3,2.7,5.4,3.5c2.1,0.8,4.3,1.2,6.6,1.2l0,0c2.3,0,4.6-0.5,6.6-1.5
														c2.1-1,3.9-2.4,5.4-4.1c1.5-1.7,2.8-3.6,3.7-5.8C-386.7,334.2-386.2,331.9-386.2,329.6z M-291.1,269.9v93.8h-4.2
														l-6.6-9.2c-1.6,1.5-3.4,2.8-5.2,4.1c-1.8,1.3-3.7,2.4-5.7,3.3c-2,0.9-4.1,1.7-6.2,2.2c-2.1,0.5-4.2,0.8-6.4,0.8l0,0
														c-4.7,0-9.2-0.9-13.3-2.7c-4.2-1.8-7.8-4.2-10.9-7.4c-3.1-3.1-5.5-6.9-7.3-11.2c-1.8-4.3-2.7-9-2.7-14.1l0,0
														c0-5,0.9-9.7,2.7-14.1c1.8-4.3,4.2-8.1,7.3-11.3c3.1-3.2,6.8-5.7,10.9-7.5c4.2-1.8,8.6-2.7,13.3-2.7l0,0
														c1.5,0,3.1,0.1,4.7,0.4c1.6,0.2,3.2,0.6,4.7,1.2c1.5,0.6,3,1.3,4.3,2.2c1.3,0.9,2.5,2.1,3.4,3.4l0,0v-31.3H-291.1z
														 M-308.3,329.6L-308.3,329.6c0-2.3-0.4-4.6-1.3-6.8c-0.9-2.2-2.1-4.2-3.7-5.9c-1.6-1.7-3.4-3-5.4-4.1
														c-2.1-1-4.3-1.5-6.6-1.5l0,0c-2.3,0-4.6,0.4-6.6,1.3c-2.1,0.8-3.8,2-5.4,3.6c-1.5,1.6-2.7,3.5-3.6,5.8
														c-0.9,2.2-1.3,4.8-1.3,7.6l0,0c0,2.5,0.4,4.8,1.3,7c0.9,2.2,2.1,4.2,3.6,5.8c1.5,1.7,3.3,3,5.4,4
														c2.1,1,4.3,1.4,6.6,1.4l0,0c2.3,0,4.6-0.5,6.6-1.5c2.1-1,3.9-2.4,5.4-4.1c1.5-1.7,2.8-3.6,3.7-5.8
														C-308.8,334.2-308.3,331.9-308.3,329.6z"/>
													<path class="st1" d="M-693.7,433.5v35.9h-18v-89.9h62.9v18h-44.9v18h27v18H-693.7z M-590.4,414.4l-32.1,38.7
														c0.7,0.2,1.3,0.4,2,0.4c0.7,0.1,1.3,0.1,2,0.1l0,0c1.7,0,3.3-0.2,4.8-0.7s3-1.1,4.4-2c1.4-0.9,2.6-1.9,3.6-3.1
														c1.1-1.2,2-2.6,2.6-4.1l0,0l12.5,12.6c-1.6,2.3-3.4,4.3-5.5,6.1c-2.1,1.8-4.3,3.3-6.7,4.6c-2.4,1.3-4.9,2.2-7.6,2.8
														c-2.7,0.6-5.4,1-8.2,1l0,0c-4.7,0-9.2-0.9-13.3-2.6c-4.2-1.7-7.8-4.2-10.9-7.3c-3.1-3.1-5.5-6.9-7.3-11.2
														c-1.8-4.3-2.7-9.1-2.7-14.3l0,0c0-5.3,0.9-10.1,2.7-14.5c1.8-4.4,4.2-8.1,7.3-11.2c3.1-3.1,6.8-5.5,10.9-7.2
														c4.2-1.7,8.6-2.6,13.3-2.6l0,0c2.8,0,5.5,0.3,8.2,1s5.2,1.6,7.6,2.9c2.4,1.3,4.6,2.8,6.7,4.6
														C-593.8,410.1-592,412.1-590.4,414.4z M-633.6,444.2l19.9-26.4c-0.8-0.3-1.6-0.5-2.4-0.6c-0.8-0.1-1.6-0.1-2.4-0.1l0,0
														c-2.3,0-4.5,0.4-6.6,1.3c-2.1,0.9-3.9,2.1-5.4,3.7c-1.5,1.6-2.7,3.5-3.6,5.7c-0.9,2.2-1.3,4.8-1.3,7.5l0,0
														c0,0.6,0,1.3,0.1,2.1c0.1,0.8,0.2,1.6,0.3,2.4c0.1,0.8,0.3,1.6,0.5,2.4C-634.2,443-634,443.6-633.6,444.2z
														 M-544.9,469.5L-544.9,469.5h-39.1v-17h39.1c1.2,0,2.2-0.4,3-1.3s1.3-1.8,1.3-3l0,0c0-1.2-0.4-2-1.3-2.4
														s-1.8-0.6-3-0.6l0,0h-17.8c-3,0-5.7-0.6-8.3-1.7c-2.6-1.1-4.9-2.7-6.8-4.6c-1.9-2-3.4-4.2-4.5-6.8
														c-1.1-2.6-1.7-5.4-1.7-8.3l0,0c0-3,0.6-5.7,1.7-8.3c1.1-2.6,2.6-4.9,4.5-6.8c1.9-1.9,4.2-3.4,6.8-4.5
														c2.6-1.1,5.4-1.7,8.3-1.7l0,0h34.7v17h-34.7c-1.2,0-2.2,0.4-3,1.3c-0.8,0.8-1.3,1.8-1.3,3l0,0c0,1.2,0.4,2.3,1.3,3.1
														s1.8,1.3,3,1.3l0,0h17.8c2.9,0,5.7,0.5,8.3,1.5c2.6,1,4.8,2.4,6.8,4.1c1.9,1.8,3.4,3.9,4.6,6.3
														c1.1,2.5,1.7,5.2,1.7,8.1l0,0c0,3-0.6,5.7-1.7,8.3c-1.1,2.6-2.7,4.8-4.6,6.8c-1.9,2-4.2,3.5-6.8,4.6
														C-539.3,468.9-542,469.5-544.9,469.5z M-467.9,469.5h-13c-4.1,0-8-0.8-11.7-2.4c-3.6-1.6-6.8-3.7-9.5-6.4
														c-2.7-2.7-4.9-5.9-6.5-9.5c-1.6-3.6-2.3-7.5-2.3-11.7l0,0v-19.9h-8.3v-17h8.3v-26.8h17v26.8h25.9v17h-25.9v19.9
														c0,1.8,0.3,3.5,1,5c0.7,1.6,1.6,2.9,2.7,4.1c1.2,1.2,2.5,2.1,4.1,2.8c1.6,0.7,3.3,1,5.1,1l0,0h13V469.5z M-438.2,384.1
														L-438.2,384.1c0,1.6-0.3,3.1-0.9,4.4c-0.6,1.4-1.4,2.6-2.5,3.6c-1,1-2.3,1.8-3.7,2.4c-1.4,0.6-2.9,0.9-4.5,0.9l0,0
														c-1.6,0-3.1-0.3-4.5-0.9c-1.4-0.6-2.6-1.4-3.6-2.4c-1-1-1.8-2.2-2.5-3.6c-0.6-1.4-0.9-2.8-0.9-4.4l0,0
														c0-1.6,0.3-3,0.9-4.4c0.6-1.4,1.4-2.6,2.5-3.6c1-1,2.2-1.8,3.6-2.4c1.4-0.6,2.9-0.9,4.5-0.9l0,0c1.6,0,3.1,0.3,4.5,0.9
														c1.4,0.6,2.6,1.4,3.7,2.4c1,1,1.9,2.2,2.5,3.6C-438.5,381.1-438.2,382.5-438.2,384.1z M-441.1,402.3v67.1h-17.2v-67.1
														H-441.1z M-391.8,469.5H-409l-25.6-67.1h19.5l14.7,41.9l14.6-41.9h19.5L-391.8,469.5z M-296.7,402.5v67h-4.1l-6.6-9.2
														c-1.6,1.5-3.3,2.8-5.2,4.1c-1.8,1.3-3.7,2.4-5.7,3.3c-2,0.9-4.1,1.7-6.2,2.2c-2.1,0.5-4.2,0.8-6.4,0.8l0,0
														c-4.7,0-9.2-0.8-13.3-2.4c-4.2-1.6-7.8-3.9-10.9-6.9c-3.1-3-5.6-6.7-7.4-11.1s-2.7-9.4-2.7-15l0,0
														c0-5.2,0.9-10,2.7-14.4c1.8-4.4,4.3-8.1,7.4-11.2c3.1-3.1,6.8-5.6,10.9-7.3c4.2-1.7,8.6-2.6,13.3-2.6l0,0
														c2.2,0,4.3,0.3,6.4,0.8c2.1,0.5,4.2,1.3,6.2,2.3c2,1,3.9,2.1,5.7,3.4c1.8,1.3,3.5,2.7,5.1,4.2l0,0l6.6-8H-296.7z
														 M-313.9,435.3L-313.9,435.3c0-2.3-0.5-4.6-1.4-6.8c-0.9-2.2-2.1-4.2-3.6-5.9c-1.6-1.7-3.4-3-5.4-4.1
														c-2.1-1-4.3-1.5-6.6-1.5l0,0c-2.3,0-4.6,0.4-6.6,1.2c-2.1,0.8-3.9,2-5.4,3.5s-2.7,3.4-3.6,5.7
														c-0.9,2.3-1.3,4.9-1.3,7.8l0,0c0,2.9,0.4,5.5,1.3,7.8s2.1,4.2,3.6,5.8c1.5,1.5,3.3,2.7,5.4,3.5
														c2.1,0.8,4.3,1.2,6.6,1.2l0,0c2.3,0,4.5-0.5,6.6-1.5c2.1-1,3.9-2.4,5.4-4.1c1.5-1.7,2.8-3.6,3.6-5.8
														C-314.4,439.9-313.9,437.6-313.9,435.3z M-266.4,375.6v93.8h-17.2v-93.8H-266.4z"/>
												</g>
											</g>
										</g>
									</g>
								</g>
								<g transform="matrix(1,0,0,1,164.59900700585032,0)">
									<g>
									</g>
								</g>
							</g>
						</g>
					</g>
				</g>
			</g>
		</mask>
		
			<linearGradient id="SVGID_1_" gradientUnits="userSpaceOnUse" x1="-1248.9055" y1="1689.1904" x2="-1248.0184" y2="1689.1904" gradientTransform="matrix(888.8889 0 0 -1000 1109114.625 1689754)">
			<stop  offset="0" style="stop-color:#0F3054"/>
			<stop  offset="0.498" style="stop-color:#3B8DCB"/>
			<stop  offset="1" style="stop-color:#0F3054"/>
		</linearGradient>
		<rect x="-1131.6" y="-561.5" class="st3" width="2000" height="2250"/>
		<g id="SvgjsG1019">
			<g>
				<g transform="matrix(1,0,0,1,80,133.24867864705163)">
					<g>
						<g>
							<g transform="matrix(1,0,0,1,0,59.96300189599975)">
								<g id="SvgjsG1018">
									<g>
										<g transform="matrix(1,0,0,1,0,0)">
											<g id="SvgjsG1015">
											</g>
										</g>
									</g>
								</g>
							</g>
							<g transform="matrix(1,0,0,1,164.59900700585032,0)">
								<g>
									<g>
										<path class="st1" d="M-238.2,200.8v50.9v9.8v31.3v60.7v235.3c-19.7-5.6-43.6-4.3-67,5.4c-44.5,18.6-69.2,60.4-55.2,93.4
											c14,33,61.4,44.7,105.8,26.1c37.2-15.5,60.2-47.3,58.7-76.6h0.4V346.7l275-43.1v216c-19.4-5-42.8-3.5-65.5,6
											C-30.5,544.2-55.2,586-41.2,619c14,33,61.4,44.7,105.9,26.1c35.5-14.9,58-44.5,58.7-72.6h0.4V296.7v-66.6v-25.5V187v-49
											L-238.2,200.8z M79.5,237.8l-275,47.6v-30.7l275-43.1V237.8z"/>
									</g>
								</g>
							</g>
						</g>
					</g>
				</g>
			</g>
			<g id="SvgjsG1013">
				<g>
					<g transform="matrix(1,0,0,1,80,133.24867864705163)">
						<g>
							<g>
								<g transform="matrix(1,0,0,1,0,59.96300189599975)">
									<g id="SvgjsG1012">
										<g>
											<g transform="matrix(1,0,0,1,0,0)">
												<g id="SvgjsG1008">
												</g>
											</g>
										</g>
									</g>
								</g>
							</g>
						</g>
					</g>
				</g>
			</g>
		</g>
		<defs>
			
				<filter id="Adobe_OpacityMaskFilter_00000136379094950994859770000012490068082566836624_" filterUnits="userSpaceOnUse" x="-1131.6" y="-561.5" width="2000" height="2250">
				<feColorMatrix  type="matrix" values="1 0 0 0 0  0 1 0 0 0  0 0 1 0 0  0 0 0 1 0"/>
			</filter>
		</defs>
		
			<mask maskUnits="userSpaceOnUse" x="-1131.6" y="-561.5" width="2000" height="2250" id="_x35_ec4f94f-29fc-48a8-a18a-d240e2d0e5b3_00000152949239266487679480000003871727456223453069_">
			
				<g id="SvgjsG1019_00000065057281877317192080000005463174227437740215_" style="filter:url(#Adobe_OpacityMaskFilter_00000136379094950994859770000012490068082566836624_);">
				<g>
				</g>
				<g>
					<g>
					</g>
					<g transform="matrix(1,0,0,1,80,133.24867864705163)">
						<g>
							<g>
								<g transform="matrix(1,0,0,1,0,59.96300189599975)">
									<g id="SvgjsG1018_00000052066250953865175470000013659109131215839155_">
										<g>
											<g transform="matrix(1,0,0,1,0,0)">
												<g transform="matrix(1,0,0,1,0,0)">
													<g>
													</g>
												</g>
												<g id="SvgjsG1015_00000114073846448062877000000011360907798688515247_">
												</g>
											</g>
										</g>
									</g>
								</g>
								<g transform="matrix(1,0,0,1,164.59900700585032,0)">
									<g>
										<g>
											<path class="st1" d="M-238.2,200.8v50.9v9.8v31.3v60.7v235.3c-19.7-5.6-43.6-4.3-67,5.4c-44.5,18.6-69.2,60.4-55.2,93.4
												c14,33,61.4,44.7,105.8,26.1c37.2-15.5,60.2-47.3,58.7-76.6h0.4V346.7l275-43.1v216c-19.4-5-42.8-3.5-65.5,6
												C-30.5,544.2-55.2,586-41.2,619c14,33,61.4,44.7,105.9,26.1c35.5-14.9,58-44.5,58.7-72.6h0.4V296.7v-66.6v-25.5V187v-49
												L-238.2,200.8z M79.5,237.8l-275,47.6v-30.7l275-43.1V237.8z"/>
										</g>
									</g>
								</g>
							</g>
						</g>
					</g>
				</g>
				<g id="SvgjsG1013_00000089566553592747454400000008366495931074294955_">
					<g>
					</g>
					<g>
						<g>
						</g>
						<g transform="matrix(1,0,0,1,80,133.24867864705163)">
							<g>
								<g>
									<g transform="matrix(1,0,0,1,0,59.96300189599975)">
										<g id="SvgjsG1012_00000085230019426239328920000004144758402360343944_">
											<g>
												<g transform="matrix(1,0,0,1,0,0)">
													<g transform="matrix(1,0,0,1,0,0)">
														<g>
														</g>
													</g>
													<g id="SvgjsG1008_00000157282018951699952860000017726049838765540744_">
													</g>
												</g>
											</g>
										</g>
									</g>
									<g transform="matrix(1,0,0,1,164.59900700585032,0)">
										<g>
										</g>
									</g>
								</g>
							</g>
						</g>
					</g>
				</g>
			</g>
		</mask>
		
			<linearGradient id="SVGID_00000182515599758597618030000015002353649546089359_" gradientUnits="userSpaceOnUse" x1="-1249.027" y1="1689.1904" x2="-1248.027" y2="1689.1904" gradientTransform="matrix(888.8889 0 0 -1000 1109114.625 1689754)">
			<stop  offset="0" style="stop-color:#FFA62E"/>
			<stop  offset="1" style="stop-color:#F71B3D"/>
		</linearGradient>
		
			<rect x="-1131.6" y="-561.5" style="mask:url(#_x35_ec4f94f-29fc-48a8-a18a-d240e2d0e5b3_00000152949239266487679480000003871727456223453069_);fill:url(#SVGID_00000182515599758597618030000015002353649546089359_);" width="2000" height="2250"/>
		<rect x="-1131.6" y="-561.5" class="st6" width="2000" height="2250"/>
	</g>
</g>
</svg>
