<svg xmlns="http://www.w3.org/2000/svg" version="1.1" xmlns:xlink="http://www.w3.org/1999/xlink" xmlns:svgjs="http://svgjs.dev/svgjs" width="1000" height="1125" viewBox="0 0 1000 1125"><g transform="matrix(1,0,0,1,0.000006425112871966121,0)"><svg viewBox="0 0 320 360" data-background-color="#ffffff" preserveAspectRatio="xMidYMid meet" height="1125" width="1000" xmlns="http://www.w3.org/2000/svg" xmlns:xlink="http://www.w3.org/1999/xlink"><g id="tight-bounds" transform="matrix(1,0,0,1,0.0000020560361235766322,0)"><svg viewBox="0 0 320 360" height="360" width="320"><g><svg></svg></g><g><svg viewBox="0 0 320 360" height="360" width="320"><g><path transform="translate(-15.58119,4.24857) scale(3.51065,3.51065)" d="M51.5 85.2c-0.4-0.5-0.8-0.2-0.8-0.5-2.4 0.6-6.9-1-8.8-0.8 0.4-0.6-0.6-0.5-0.6-0.9-0.4 0.6-0.8 0-1.4 0.2-0.6-1.5-3-0.4-3.3-2.3-1.4 0-1.9-0.8-3.3-1.6 0.1-0.1 0.2-0.1 0.3-0.2-0.7-0.1-0.7-0.5-1.3-0.5l0.2-0.4c-1.1-0.2-1.5-1.9-3.1-2.5-0.5-0.1-1.6-1.8-2.2-2.2-0.3-0.2-0.8-0.2-0.1-0.3-0.1-0.1-0.1-0.3 0-0.4-0.7-0.2-0.8-0.8-1.7-1.1-0.1-0.3 0.2-0.5 0-0.7-0.2-0.1-0.5 0.1-0.7 0-0.1 1.8 1.9 2 2.5 3.5-0.2-0.2-0.5-0.8-0.7-0.4-0.1 0.3 0.8 1.4 0.8 0.8-0.3 0.2-0.4-0.3-0.2-0.4 0.3 0.5 0.9 0.4 0.9 0.8-0.3 0.3-0.7-0.3-0.6 0.2 0.9 0.5 0.8 1 1.3 1.7-0.4-0.5-0.5 0.4-0.9 0-0.1-1.5-1.8-1.2-1.8-2.7-0.2-0.5-0.4-0.1-0.7-0.3 0.4-0.4-1.2-1.8-1.2-1.3-0.5-0.6-0.2-0.8-0.3-1.2-0.4-0.1-0.1 0.4-0.4 0.1 0.4-0.7-0.5-1.6-1.1-2.3l0.4-0.2c-0.7-0.4-0.8-1.2-1.3-2.1-0.6 0.9 1.2 2.9 0.9 3.3 0 0.1 0.7 0.9 0.9 1.3 0.8 1.4 1.4 3.1 2.5 3.9-0.2-0.1-0.1-0.7 0.2-0.4 0 0.3-0.2 0.6-0.2 0.9 0.6 0.6 1.1 1.1 1.7 1.7-1.3-0.8-2.6-1.6-3.5-2.8 0.5-0.1 1 0.8 1.4 0.7-1-0.8-0.7-1.1-1.1-2.1-0.4-0.3 0.1 0.4-0.3 0.5-1.3-1.2-2.3-1.9-2.9-3 0.1-0.1 0.2-0.2 0.2-0.4-0.1-0.1-0.1-0.1-0.2-0.2 0.6 0.6 0.8 1.1 1.5 1.2-0.3-0.3 0-0.4-0.4-0.7-0.2-0.4-0.5 0.2-0.7-0.1 0.2-0.3 0-0.7 0-1-0.2 0-0.4 0-0.5-0.3-0.2-0.1-0.3 0-0.4 0.2-0.1-0.1-0.1-0.3-0.2-0.4v-0.1c-0.1-0.1-0.2-0.3-0.3-0.4-0.8-2.1-1.3-4.9-2.4-6.7 0.3-1.2-0.2-3.6-0.5-4.2 0.3-0.5 0.1-2.8-0.1-3.2-0.5 0.2 0.1 1.3-0.4 1.6-0.5-2.2 0.3-4.7 0.1-6.7 0.2 0 0.4 0 0.4-0.1-0.3-0.3 0.2-0.9 0.1-1.6 0.4-0.9-0.9 1.3-0.9 2.2-0.1 0.2-0.5 0-0.4 0.5 0 0.7 0.2 2.1-0.2 3.1-0.2 0-0.2-0.2-0.4-0.1-0.1 0.5-0.2 1.1-0.3 1.6-0.1-0.2-0.2-0.5-0.2-0.6-0.5-2.5 0-5.4-0.2-7.5 0.4 0 0.4-0.6 0.7-0.8-0.1 0.8-0.3 1.8 0.2 2 0.4-3.9 1.2-8.2 3-12.4 1.3-3.1 3.2-6.2 5.5-8.7 0.2 0.3-0.1 1 0 1.3 2-2.1 3.3-4.6 5.5-6 0.1 0.5-0.9 0.9-0.9 1.3 0.9-0.9 1.2-0.6 2.2-0.9 0.3-0.4-0.4 0-0.5-0.4 0.6-0.4 1-0.9 1.4-1.2 0 0.1-0.1 0.1-0.1 0.2 1.1-0.3 1.2-0.9 2-1.1-0.1-0.1-0.3-0.2-0.6-0.1 0.2-0.1 0.5-0.3 0.8-0.4-0.1 0-0.1 0.1-0.2 0.1 0.6-0.3 0.1 0.1 0.1 0.3 0.1 0 0.2-0.1 0.2-0.1-0.6 0.4-1 0.6-1.2 1.3 0.3-0.2 0.4 0 0.8-0.3 0.4-0.2-0.1-0.5 0.2-0.7 0.3 0.2 0.7 0.1 1 0.1 0-0.2 0.1-0.4 0.3-0.5 0.1-0.2 0-0.3-0.1-0.3 0.1-0.1 0.2-0.1 0.4-0.2 0 0 0.1 0 0.1 0.1 1.7-0.8 3.6-1.5 5.4-2.1 1.1-0.1 2.5-0.1 3.1-0.8-0.2 0-0.4 0.1-0.5 0 0.1 0 0.3-0.1 0.4-0.1 0.2 0.2 0.5 0 0.2 0.4 0.1 0 0.1 0 0.2-0.1 0 0.1 0 0.1 0.1 0.2 0.1 0 0.2-0.1 0.3-0.3 0.1 0 0.2 0 0.3-0.1l-0.1 0.1c0.8-0.2 1.5-0.1 2.6-0.3 0-0.1 0-0.2 0-0.3 0.2 0 0.3-0.1 0.5-0.1v0.1c0.4-0.2 0.8 0.2 0.8 0 0.1 0 0.1 0 0.2 0 0 0.2-0.1 0.3-0.1 0.4 0.5 0 0.8 0 1-0.3-0.1-0.1-0.2-0.1-0.3-0.1 0.2 0 0.4-0.1 0.6-0.2 0.3 0.1 0.4 0.2 0.4 0.6 0.5-0.9 2.1 0.2 2.8 0 0.3 0 0.2-0.4 0.4-0.6 0.1 0 0.2 0 0.3 0 0.5 0.4 1.2 0.8 2.1 0.9-0.8-0.2 0.1-0.3 0.2-0.4-0.2 0-0.2-0.1-0.2-0.2 0.3 0 0.6 0.1 0.9 0.1 0 0.2 0.1 0.3 0.3 0.3 0.2 0 0.2-0.1 0.2-0.3 0.3 0 0.5 0 0.8 0.1-0.1 0.4 0.5 0.5 0.7 0.8-0.8-0.2-1.7-0.5-2 0 3.2 0.7 6.7 1.7 10.1 3.4 0 0 0 0 0 0.1h0.1c0.6 0.3 1.2 0.6 1.8 0.9 0.4 0.2 0.7 0.4 1.1 0.7 0 0.1 0 0.2 0.2 0.2h0.1c0.4 0.3 0.8 0.5 1.2 0.8 0.4 0.6 0.8 1.4 1.5 1.2 1.5 2.3 3.1 3.2 4.4 5.6 0.1-0.4 0.4 0.9 0.9 1-0.8-0.1 0.5 0.5-0.3 0.4 0.7 0.7 0.9 1 1 1.8-0.2-0.4-0.3-0.5-0.4-0.1-0.1 0.6 0.7-0.1 1 0.5-0.6 0-0.4 0.4-0.3 0.9 0.3-0.3 0.2-0.6 0.5-0.5 0.4 0.4-0.2 0.5-0.1 0.8 0.3-0.4 0.4-0.2 0.8 0-0.5 0.1 0.3 0.8-0.3 0.5 0.4 0.5 0.5 0.8 0.3 1.3-0.4-0.6-0.1-1-0.7-0.9 1.2 1 0.6 3.3 2 3.5-0.9 0.2 0 0.6-0.5 0.7 0.6 0.2 0.3 1 1 1.2-0.1 0.5-0.3 0.8-0.4 1.3 0.3 0.4 0.4 1.2 0.9 1.3-0.3 0.3-0.1 1.1-0.4 1.4 0.4-0.2 0.6-0.2 0.9 0.2-0.5 0.4-0.1 0.8-0.4 0.9 0.9 2.3-0.2 7 0.3 8.8-0.6-0.3-0.4 0.7-0.8 0.7 0.7 0.3 0.1 0.8 0.4 1.3-1.4 0.8 0 3-1.9 3.5 0.2 1.4-0.6 2-1.2 3.5-0.1-0.1-0.1-0.2-0.2-0.3-0.1 0.7-0.5 0.8-0.3 1.4l-0.4-0.2c0 1.1-1.7 1.7-2.1 3.4-0.1 0.5-1.6 1.8-2 2.5-0.2 0.3-0.1 0.8-0.3 0.1-0.1 0.1-0.3 0.1-0.4 0.1-0.1 0.7-0.7 0.9-0.9 1.8-0.2 0.1-0.5-0.2-0.7 0.1 0 0.2 0.2 0.5 0.1 0.7 1.8-0.1 1.8-2.2 3.2-2.9-0.1 0.3-0.7 0.6-0.3 0.8 0.3 0 1.2-1 0.7-0.9 0.3 0.2-0.3 0.4-0.4 0.3 0.5-0.4 0.3-0.9 0.7-1 0.3 0.2-0.3 0.7 0.3 0.6 0.4-0.9 0.9-1 1.5-1.5-0.4 0.4 0.5 0.5 0.1 0.9-1.5 0.3-1 2-2.5 2.2-0.4 0.3-0.1 0.4-0.2 0.7-0.5-0.3-1.6 1.4-1.2 1.3-0.5 0.5-0.8 0.3-1.2 0.4-0.1 0.4 0.4 0.1 0.2 0.4-0.7-0.3-1.6 0.7-2.2 1.4l-0.3-0.3c-0.3 0.8-1.1 0.9-2 1.5 1 0.5 2.7-1.6 3.2-1.3 0.1 0 0.9-0.8 1.2-1.1 1.3-1 2.9-1.8 3.5-2.9-0.1 0.2-0.7 0.2-0.4-0.1 0.3-0.1 0.6 0.1 0.9 0.1 1.6-2.2 3.6-4 5.1-6.6 0.1-0.1 0.2-0.3 0.3-0.5-0.2 0.6-0.5 1.1-0.7 1.7-1.6 1.1-2.2 4.3-4.1 4.8 0.1 1.1-0.9 1.4-1.4 2.7-0.3 0.4-0.5-0.3-0.8 0.2 0.3 1.4-2.5 1.3-2.4 2.6-0.2 0.1-0.5 0.2-0.7 0.4h-0.1c-0.1 0.1-0.1 0.1-0.2 0.2-0.5 0.3-0.9 0.6-1.3 0.9-1.4 0.8-3.3 1.4-4.8 2.2v-0.1c-0.4 0.2-0.9 0.1-0.8 0.5-0.3 0.2-0.6 0.4-0.9 0.6-0.1 0-0.1 0-0.2 0 0 0-0.1-0.1-0.2-0.1-0.2 0-0.2 0-0.3 0.1-1.3 0.1-3 0.7-3.5 1.1-0.5-0.3-2.8 0.2-3.2 0.4 0.2 0.3 0.8 0 1.3 0-0.3 0.1-0.6 0.2-0.7 0.4-0.1 0-0.1 0-0.2 0-0.1-0.3-0.4 0-0.5-0.1h0.1c-0.1-0.4-0.4-0.6-0.9-0.5 0 0.2 0 0.3-0.1 0.5 0.2 0 0.8-0.3 0.8 0-0.1 0-0.1 0.1 0 0.1-0.2 0.2-0.5 0.2-0.7 0.3-0.4 0-0.9 0-1.3 0-0.1-0.1-0.2-0.1-0.4-0.2-0.1 0.1-0.3 0.1-0.4 0.2-0.6 0-1.3 0.1-1.8 0.2 0-0.2 0-0.4-0.2-0.4-0.3 0.4-0.9-0.1-1.6 0.1-0.7-0.2 0.4 0.3 1.4 0.5-0.1 0.1-0.2 0.2-0.5 0.3M37.5 86.6c-1.4-1.3-4.3-1.9-4.8-2.9-0.8-0.1-2-1.6-3-1.8 0.5 0 0.1-0.3 0-0.5-0.2 0.2-0.4 0.3-0.6 0.3 0-0.8-0.8-1.3-1.5-1.8 0.5 0.3 0.9 0.5 1.5 0.6 0-0.2 0-0.4 0.2-0.4 0.7 0.7 1.5 1.4 2.4 2.1 1.2 1.1 7.4 3.9 8.5 4.4 0 0-0.2 0.4-0.1 0.4 0.5 0.3 0.9-0.3 1 0.4-1.6 0.2-2.2-0.9-3.6-0.8M83.6 63.4v0.1 0c-0.1 0 0-0.1 0-0.1M43.2 17.1c-0.1 0.1-0.2 0.1-0.2 0.1 0-0.1 0.1-0.1 0.2-0.1M41.3 17.6c0 0.1 0 0.1 0 0 0 0.1 0 0.1 0 0 0 0.1 0 0 0 0M34.7 19.7v0c0.1-0.1 0.1-0.1 0.2-0.1-0.1 0-0.2 0.1-0.2 0.1M50.7 16.4c-0.2 0-0.3 0-0.4-0.1 0.1 0 0.2 0 0.3 0h0.1c0 0 0 0 0 0.1M52.5 16.6c-0.1-0.1-0.4-0.2-0.7-0.2 0-0.1 0.1-0.2 0.1-0.2 0.1 0 0.2 0 0.3 0 0 0 0.1 0 0.1 0.1 0 0 0 0 0-0.1 0.1 0 0.1 0 0.2 0 0.1 0.2 0.2 0.3 0 0.4M55.8 16.9c-0.5 0.1-0.8-0.1-1.3-0.4 0.3 0 0.7 0.1 1 0.2 0.1 0 0.2 0.1 0.3 0.2M91.4 31.1c-0.2 0.1-0.3 0.1-0.5-0.3-1.6-3.4-4.5-8.3-8.7-12.4-4.1-4.2-9.6-7.6-14.6-9.4 0.3 0.1 0.7 0.3 0.5 0.5-4.4-1.7-8.6-2.7-12.6-3.1-10.8-1.7-22.1 0.6-30.8 6.2 0.1 0.2 0.1 0.3-0.2 0.5-3.2 2-7.7 5.5-11.3 10.1-3.6 4.6-6.4 10.4-7.6 15.6 0.1-0.3 0.2-0.8 0.4-0.6-2.6 10.3-1.9 19.1 1.7 26.7 0.2-0.2-0.5-1.2 0.1-1.1 0.4 1.1 0.9 2.3 1.5 3.4 0.7 1.6 1.5 3.7 2.6 4.2-2.8-5.5-4.7-11.8-4.9-17.4 0.4 0.8 0.3 2.5 0.9 3.2 0.2-3.8-0.7-8.9 0.6-12.5-0.3 1.9-0.5 4.5-0.3 7.1 0 1.9 0.9 7.2 1.5 7.7-0.1-0.1-0.1-0.6 0-0.6 0.3 0.6-0.4 0.9 0.1 1 0-0.2 0.1-0.2 0.2-0.2 1 2.2 2.3 5.6 3.3 7.3 1.2 2.2 2.8 4.2 4.6 6 0 0.1 0.1 0.1 0.1 0.2 0.2 0.5 0.9 1.1 1.1 1.5 0.1 0.2-0.1 0.5 0 0.7 1.5 2.8 3.7 5.6 6.4 7.8 1.7 2 4.4 4.1 7.7 5.9 3.2 1.7 6.9 3.1 10.3 3.9 2.4 0.6 5.3 0.7 7.1 1.1 2.4 0.5 6.6-0.2 8.7-0.6 12.6-1.9 25.1-10.5 31.4-22.9 6.5-12.5 6.3-27.8 0.7-39.5" fill="#ffffff" fill-rule="nonzero" stroke="none" stroke-width="1" stroke-linecap="butt" stroke-linejoin="miter" stroke-miterlimit="10" stroke-dasharray="" stroke-dashoffset="0" font-family="none" font-weight="none" font-size="none" text-anchor="none" style="mix-blend-mode: normal" data-fill-palette-color="tertiary"></path></g><g transform="matrix(1,0,0,1,80,130.1115557958496)"><svg viewBox="0 0 160 99.7768884083008" height="99.7768884083008" width="160"><g><svg viewBox="0 0 160 99.7768884083008" height="99.7768884083008" width="160"><g><svg viewBox="0 0 363.98865221451103 226.98534458684423" height="99.7768884083008" width="160"><g transform="matrix(1,0,0,1,0,41.49267229342212)"><svg viewBox="0 0 153.38801261829653 144" height="144" width="153.38801261829653"><g id="textblocktransform"><svg viewBox="0 0 153.38801261829653 144" height="144" width="153.38801261829653" id="textblock"><g><svg viewBox="0 0 153.38801261829653 144" height="144" width="153.38801261829653"><g transform="matrix(1,0,0,1,0,0)"><svg width="153.38801261829653" viewBox="1.66 -28.86 24.73 23.22" height="144" data-palette-color="#ffffff"><path d="M26.39-24.1L25-19.04 21.85-19.04 20.8-15.31 24-15.31 22.56-10.25 19.36-10.25 18.14-5.64 12.4-5.64 13.65-10.25 10.55-10.25 9.3-5.64 3.54-5.64 4.86-10.25 1.66-10.25 3.1-15.31 6.25-15.31 7.3-19.04 4.1-19.04 5.49-24.1 8.69-24.1 10.01-28.86 15.7-28.86 14.4-24.1 17.5-24.1 18.85-28.86 24.56-28.86 23.19-24.1 26.39-24.1ZM16.16-19.04L12.99-19.04 11.94-15.31 15.09-15.31 16.16-19.04Z" opacity="1" transform="matrix(1,0,0,1,0,0)" fill="#ffffff" class="wordmark-text-0" data-fill-palette-color="primary" id="text-0"></path></svg></g></svg></g></svg></g></svg></g><g transform="matrix(1,0,0,1,174.40106861829653,0)"><svg viewBox="0 0 189.5875835962145 226.98534458684423" height="226.98534458684423" width="189.5875835962145"><g><svg xmlns="http://www.w3.org/2000/svg" xmlns:xlink="http://www.w3.org/1999/xlink" version="1.1" x="0" y="0" viewBox="5.999164783092315 3 79.96483521690767 95.73857808746513" enable-background="new 0 0 100 100" xml:space="preserve" height="226.98534458684423" width="189.5875835962145" class="icon-icon-0" data-fill-palette-color="accent" id="icon-0"><g fill="#ffa269" data-fill-palette-color="accent"><path fill="#ffa269" d="M26.66 13.266v8.338 1.6 5.134 9.941 38.55c-3.223-0.916-7.149-0.712-10.972 0.888-7.287 3.048-11.342 9.901-9.047 15.301 2.287 5.407 10.054 7.317 17.34 4.271 6.094-2.547 9.865-7.749 9.617-12.548h0.068V37.183l45.044-7.065v35.386c-3.174-0.827-7.01-0.579-10.729 0.976-7.282 3.047-11.338 9.901-9.047 15.305 2.292 5.406 10.059 7.318 17.344 4.268 5.815-2.433 9.502-7.283 9.618-11.894h0.068v-45.18V18.075v-4.17-2.884V3L26.66 13.266zM78.711 19.331L33.667 27.13v-5.022l45.044-7.063V19.331z" data-fill-palette-color="accent"></path></g></svg></g></svg></g></svg></g></svg></g></svg></g></svg></g><defs></defs></svg><rect width="320" height="360" fill="none" stroke="none" visibility="hidden"></rect></g></svg></g></svg>