<svg width="153" height="41" viewBox="0 0 153 41" fill="none" xmlns="http://www.w3.org/2000/svg">
    <rect width="153" height="41" rx="5" fill="#DC2626"/>
    <path d="M18.1809 32V9.6H23.3009L25.1569 21.12L26.9809 9.6H32.1969V32.032H28.0369V21.216L26.2129 32H24.0689L22.2449 21.312V32H18.1809ZM42.2161 32C42.2161 31.9787 42.1308 31.968 41.9601 31.968H41.4161C41.0535 31.968 40.5948 31.936 40.0401 31.872C39.5068 31.808 38.9308 31.6587 38.3121 31.424C37.7148 31.1893 37.1175 30.8373 36.5201 30.368C35.9228 29.8773 35.3788 29.2053 34.8881 28.352C34.4188 27.4987 34.0348 26.4427 33.7361 25.184C33.4375 23.904 33.2881 22.3573 33.2881 20.544C33.2881 18.7733 33.4801 17.28 33.8641 16.064C34.2695 14.8267 34.7708 13.8027 35.3681 12.992C35.9655 12.1813 36.6161 11.552 37.3201 11.104C38.0455 10.6347 38.7281 10.2933 39.3681 10.08C40.0295 9.86666 40.6055 9.73867 41.0961 9.696C41.6081 9.632 41.9388 9.6 42.0881 9.6H42.1841V13.664C42.1415 13.664 42.1095 13.6533 42.0881 13.632H41.7681C41.4695 13.632 41.0641 13.696 40.5521 13.824C40.0615 13.952 39.5708 14.2507 39.0801 14.72C38.5895 15.168 38.1628 15.8507 37.8001 16.768C37.4375 17.6853 37.2561 18.944 37.2561 20.544C37.2561 22.272 37.4375 23.6373 37.8001 24.64C38.1628 25.6427 38.5895 26.4 39.0801 26.912C39.5921 27.4027 40.1041 27.7227 40.6161 27.872C41.1281 28 41.5335 28.064 41.8321 28.064C41.9815 28.064 42.0775 28.0533 42.1201 28.032C42.1415 28.032 42.1735 28.032 42.2161 28.032V32ZM55.7821 20.928C55.7821 21.6747 55.7715 22.4747 55.7501 23.328C55.7501 24.16 55.6968 24.992 55.5901 25.824C55.5048 26.6347 55.3448 27.4133 55.1101 28.16C54.8755 28.9067 54.5235 29.568 54.0541 30.144C53.6061 30.6987 53.0195 31.1467 52.2941 31.488C51.5688 31.8293 50.6728 32 49.6061 32C48.1341 32 46.9821 31.744 46.1501 31.232C45.3395 30.72 44.7315 29.9947 44.3261 29.056C43.9421 28.096 43.7075 26.944 43.6221 25.6C43.5581 24.256 43.5261 22.7627 43.5261 21.12V9.568H47.4621V20.928C47.4835 22.2507 47.5688 23.424 47.7181 24.448C47.7821 24.896 47.8675 25.3333 47.9741 25.76C48.0808 26.1653 48.2088 26.5387 48.3581 26.88C48.5288 27.2 48.7101 27.4667 48.9021 27.68C49.1155 27.872 49.3501 27.968 49.6061 27.968C49.9261 27.968 50.1928 27.872 50.4061 27.68C50.6408 27.4667 50.8328 27.2 50.9821 26.88C51.1528 26.5387 51.2808 26.1653 51.3661 25.76C51.4728 25.3333 51.5581 24.896 51.6221 24.448C51.7501 23.424 51.8035 22.2507 51.7821 20.928V9.6H55.7821V20.928ZM72.7456 9.6H76.7136V32H72.7456V9.6ZM77.5246 32V9.6H82.6446L84.5006 21.12L86.3246 9.6H91.5406V32.032H87.3806V21.216L85.5566 32H83.4126L81.5886 21.312V32H77.5246ZM92.2799 32V9.6H99.7999V13.568H96.4079V18.624H99.8319V22.784H96.2159V27.84H99.8639V32H92.2799ZM105.089 9.568V27.968H108.545V32.032H101.121V9.6L105.089 9.568ZM109.464 9.6H113.432V32H109.464V9.6ZM114.339 32V9.6H118.339L121.763 21.184V9.6H125.859V32H121.763L118.307 21.312V32.032L114.339 32ZM126.874 32V9.6H134.394V13.568H131.002V18.624H134.426V22.784H130.81V27.84H134.458V32H126.874Z"
          fill="white"/>
    <path d="M17.7969 36H135.194V37.6H17.7969V36Z" fill="white"/>
    <rect x="64" y="8" width="6" height="24" fill="white"/>
    <path d="M130.232 4.53877L135.894 6.48866L130.244 8.35574L18.0166 8.63811L18.0047 4.82114L130.232 4.53877Z"
          fill="white"/>
    <path d="M130.232 4.53877L135.894 6.48866L130.244 8.35574L18.0166 8.63811L18.0047 4.82114L130.232 4.53877Z"
          fill="white"/>
    <path d="M130.232 4.53877L135.894 6.48866L130.244 8.35574L18.0166 8.63811L18.0047 4.82114L130.232 4.53877Z"
          fill="white"/>
    <path d="M130.232 4.53877L135.894 6.48866L130.244 8.35574L18.0166 8.63811L18.0047 4.82114L130.232 4.53877Z"
          fill="white"/>
    <path d="M130.232 4.53877L135.894 6.48866L130.244 8.35574L18.0166 8.63811L18.0047 4.82114L130.232 4.53877Z"
          fill="white"/>
    <path d="M130.232 4.53877L135.894 6.48866L130.244 8.35574L18.0166 8.63811L18.0047 4.82114L130.232 4.53877Z"
          fill="white"/>
    <path d="M130.232 4.53877L135.894 6.48866L130.244 8.35574L18.0166 8.63811L18.0047 4.82114L130.232 4.53877Z"
          fill="white"/>
    <path d="M130.232 4.53877L135.894 6.48866L130.244 8.35574L18.0166 8.63811L18.0047 4.82114L130.232 4.53877Z"
          fill="white"/>
    <path d="M130.232 4.53877L135.894 6.48866L130.244 8.35574L18.0166 8.63811L18.0047 4.82114L130.232 4.53877Z"
          fill="white"/>
    <path d="M130.232 4.53877L135.894 6.48866L130.244 8.35574L18.0166 8.63811L18.0047 4.82114L130.232 4.53877Z"
          fill="white"/>
</svg>