<?xml version="1.0" encoding="utf-8"?>
<!-- Generator: Adobe Illustrator 27.5.0, SVG Export Plug-In . SVG Version: 6.00 Build 0)  -->
<svg version="1.1" id="icon-0" xmlns:svgjs="http://svgjs.dev/svgjs"
	 xmlns="http://www.w3.org/2000/svg" xmlns:xlink="http://www.w3.org/1999/xlink" x="0px" y="0px" viewBox="0 0 2000 1247"
	 style="enable-background:new 0 0 2000 1247;" xml:space="preserve">
<style type="text/css">
	.st0{fill:#FDF3E8;}
	.st1{fill:#FFD700;}
	.st2{display:none;fill:none;}
	.st3{fill:#9C0000;}
</style>
<g transform="matrix(1,0,0,1,-1.2121212121212466,0.504858299595071)">
	<g id="tight-bounds" transform="matrix(1,0,0,1,0.2400000000000091,-0.09999999999999432)">
		<g>
			<g transform="matrix(1,0,0,1,75.54432,100.80331207224106)">
				<g>
					<g transform="matrix(1,0,0,1,0,7.880051701880966)">
						<g id="textblocktransform">
							<g>
								<g transform="matrix(1,0,0,1,0,0)">
									<path id="text-0" class="st0" d="M355.2,598.2L355.2,598.2c-8.7,0-16.7-1.6-24-4.8c-7.3-3.2-13.2-8.4-17.5-15.6
										s-6.5-16.7-6.5-28.5l0,0v-67.5c0-11.8,2.2-21.3,6.6-28.5c4.4-7.2,10.3-12.4,17.6-15.6c7.3-3.2,15.3-4.8,24-4.8l0,0
										c10.2,0,18.8,1.7,26,5.2c7.2,3.4,12.7,8.1,16.6,14c3.9,5.9,5.8,12.5,5.8,19.8l0,0c0,4.2-0.8,6.9-2.3,8.3
										c-1.6,1.3-3.9,2-7.1,2l0,0c-3,0-5.3-0.6-6.8-1.8c-1.6-1.2-2.5-2.8-2.6-4.7l0,0c-0.1-2.2-0.6-4.8-1.2-7.8
										c-0.7-2.9-2-5.7-4-8.5c-2-2.7-4.9-5-8.7-6.8c-3.8-1.8-8.9-2.7-15.2-2.7l0,0c-9.6,0-16.9,2.6-22.1,7.7
										c-5.2,5.2-7.8,13.2-7.8,24.1l0,0v67.5c0,10.9,2.6,18.9,7.8,24.1c5.2,5.2,12.8,7.8,22.6,7.8l0,0c6.3,0,11.3-0.9,14.9-2.7
										c3.6-1.8,6.4-4,8.2-6.7c1.8-2.7,3.1-5.6,3.8-8.7c0.7-3,1.3-5.9,1.6-8.6l0,0c0.1-2.2,1-3.9,2.7-4.9c1.6-1,3.9-1.6,6.7-1.6
										l0,0c3.1,0,5.5,0.7,7.1,2.1c1.6,1.4,2.3,4.2,2.3,8.4l0,0c0,7.3-2,14-5.9,20c-4,6.1-9.6,10.8-16.8,14.3
										C373.9,596.4,365.2,598.2,355.2,598.2z M437.5,596.9L437.5,596.9c-2.2,0-4.4-0.6-6.4-1.7c-2-1.1-3-2.8-3-5l0,0V439.5
										c0-2.2,1-3.9,3-4.9c2-1,4.2-1.6,6.4-1.6l0,0c2.4,0,4.6,0.5,6.5,1.6c1.9,1,2.9,2.7,2.9,4.9l0,0v150.6c0,2.2-1,3.9-2.9,5
										C442,596.3,439.9,596.9,437.5,596.9z M488.4,596.9L488.4,596.9c-2.2,0-4.4-0.6-6.4-1.7c-2-1.1-3-2.8-3-5l0,0V439.5
										c0-2.4,1-4.1,3-5.1c2-1,4.2-1.4,6.4-1.4l0,0c2.4,0,4.4,0.4,6.1,1.3s3.1,2.2,4.5,3.9c1.3,1.7,2.7,3.9,4,6.6l0,0L558.5,554
										V439.5c0-2.2,1-3.9,3-4.9c2-1,4.2-1.6,6.4-1.6l0,0c2.4,0,4.6,0.5,6.5,1.6c1.9,1,2.9,2.7,2.9,4.9l0,0v150.6
										c0,2.2-1,3.9-2.9,5c-1.9,1.1-4.1,1.7-6.5,1.7l0,0c-2.4,0-4.6-0.8-6.6-2.5c-2-1.6-3.7-3.7-5-6.1l0,0l-58.5-112.8v114.6
										c0,2.2-1,3.9-2.9,5C492.9,596.3,490.8,596.9,488.4,596.9z M697.7,596.9h-79.8c-2.1,0-4-0.6-5.8-1.7c-1.8-1.1-2.7-2.8-2.7-5
										l0,0V439.7c0-2.2,0.9-3.9,2.7-5.1c1.8-1.1,3.7-1.7,5.8-1.7l0,0h79.8c2.4,0,4.1,0.9,5.1,2.7c1,1.8,1.4,3.7,1.4,5.6l0,0
										c0,2.2-0.6,4.3-1.7,6.1c-1.1,1.8-2.7,2.7-4.8,2.7l0,0h-69.5V507h35c2.1,0,3.7,0.8,4.8,2.5c1.1,1.6,1.7,3.5,1.7,5.6l0,0
										c0,1.8-0.5,3.5-1.4,5.2c-1,1.6-2.7,2.5-5.1,2.5l0,0h-35v57.2h69.5c2.1,0,3.7,0.9,4.8,2.6c1.1,1.7,1.7,3.8,1.7,6.2l0,0
										c0,1.9-0.5,3.8-1.4,5.6C701.8,596,700.1,596.9,697.7,596.9L697.7,596.9z M811.6,597.3L811.6,597.3c-1.8,0-3.4-0.7-4.8-2.2
										c-1.4-1.5-2.7-3.2-3.7-5.2l0,0l-33.6-65.7h-26v65.9c0,2.2-1,3.9-2.9,5c-1.9,1.1-4.1,1.7-6.5,1.7l0,0
										c-2.2,0-4.4-0.6-6.4-1.7c-2-1.1-3-2.8-3-5l0,0V439.5c0-1.8,0.6-3.3,1.9-4.5c1.3-1.2,2.9-1.9,4.8-2l0,0h41
										c9.1,0,17.5,1.4,25,4.1c7.5,2.8,13.5,7.4,18,13.9c4.5,6.5,6.7,15.4,6.7,26.8l0,0c0,9.1-1.4,16.7-4.3,22.6
										c-2.9,6-6.9,10.6-12,14c-5.1,3.4-10.8,5.7-17,7.1l0,0l33.2,63c0.3,0.6,0.5,1.2,0.7,1.7c0.1,0.5,0.2,1,0.2,1.5l0,0
										c0,1.6-0.6,3.2-1.7,4.7c-1.1,1.5-2.6,2.7-4.3,3.6C815.1,596.9,813.4,597.3,811.6,597.3z M743.4,450v58.5h28.9
										c9.3,0,16.7-2.2,22.4-6.7s8.5-12,8.5-22.6l0,0c0-10.6-2.8-18.1-8.5-22.6c-5.7-4.4-13.2-6.6-22.4-6.6l0,0H743.4z
										 M933.8,596.9h-79.8c-2.1,0-4-0.6-5.8-1.7c-1.8-1.1-2.7-2.8-2.7-5l0,0V439.7c0-2.2,0.9-3.9,2.7-5.1
										c1.8-1.1,3.7-1.7,5.8-1.7l0,0h79.8c2.4,0,4.1,0.9,5,2.7c1,1.8,1.5,3.7,1.5,5.6l0,0c0,2.2-0.6,4.3-1.7,6.1
										c-1.1,1.8-2.7,2.7-4.8,2.7l0,0h-69.5V507h35c2.1,0,3.7,0.8,4.8,2.5c1.1,1.6,1.7,3.5,1.7,5.6l0,0c0,1.8-0.5,3.5-1.5,5.2
										c-1,1.6-2.6,2.5-5,2.5l0,0h-35v57.2h69.5c2.1,0,3.7,0.9,4.8,2.6c1.1,1.7,1.7,3.8,1.7,6.2l0,0c0,1.9-0.5,3.8-1.5,5.6
										C937.8,596,936.1,596.9,933.8,596.9L933.8,596.9z M959.8,596.9L959.8,596.9c-1.5,0-3.2-0.3-5.1-1c-1.9-0.7-3.3-1.6-4.5-2.8
										c-1.1-1.2-1.7-2.5-1.7-4l0,0c0-0.6,0.1-1.2,0.2-1.8l0,0l46-149.1c0.6-2.2,2-3.9,4.3-4.9c2.2-1,4.6-1.6,7.2-1.6l0,0
										c2.7,0,5.2,0.6,7.4,1.7c2.2,1.1,3.7,2.7,4.3,4.8l0,0l45.7,149.1c0.3,0.6,0.4,1.1,0.4,1.6l0,0c0,1.5-0.6,2.8-1.9,4
										c-1.3,1.2-2.8,2.2-4.6,2.9c-1.8,0.7-3.5,1.1-5.2,1.1l0,0c-1.6,0-3.1-0.3-4.3-1c-1.2-0.7-2-1.7-2.5-3.2l0,0l-10.1-33.4h-59
										l-9.6,33.4c-0.4,1.5-1.3,2.6-2.6,3.2C963.1,596.5,961.5,596.9,959.8,596.9z M1006.2,459.4L981,543.7h50.2L1006.2,459.4z
										 M1129.9,598.2L1129.9,598.2c-8.7,0-16.7-1.6-24-4.8c-7.3-3.2-13.2-8.4-17.5-15.6c-4.3-7.2-6.5-16.7-6.5-28.5l0,0v-67.5
										c0-11.8,2.2-21.3,6.6-28.5c4.4-7.2,10.3-12.4,17.6-15.6c7.3-3.2,15.3-4.8,24-4.8l0,0c10.2,0,18.8,1.7,26,5.2
										c7.2,3.4,12.7,8.1,16.6,14c3.9,5.9,5.8,12.5,5.8,19.8l0,0c0,4.2-0.8,6.9-2.3,8.3c-1.6,1.3-3.9,2-7.1,2l0,0
										c-3,0-5.3-0.6-6.8-1.8c-1.6-1.2-2.5-2.8-2.6-4.7l0,0c-0.1-2.2-0.6-4.8-1.2-7.8c-0.7-2.9-2-5.7-4-8.5c-2-2.7-4.9-5-8.7-6.8
										c-3.8-1.8-8.9-2.7-15.2-2.7l0,0c-9.6,0-16.9,2.6-22.1,7.7c-5.2,5.2-7.8,13.2-7.8,24.1l0,0v67.5c0,10.9,2.6,18.9,7.8,24.1
										c5.2,5.2,12.8,7.8,22.6,7.8l0,0c6.3,0,11.3-0.9,14.9-2.7c3.6-1.8,6.4-4,8.2-6.7c1.8-2.7,3.1-5.6,3.8-8.7
										c0.7-3,1.3-5.9,1.6-8.6l0,0c0.1-2.2,1-3.9,2.7-4.9c1.6-1,3.9-1.6,6.7-1.6l0,0c3.1,0,5.5,0.7,7.1,2.1
										c1.6,1.4,2.3,4.2,2.3,8.4l0,0c0,7.3-2,14-5.9,20c-4,6.1-9.6,10.8-16.8,14.3C1148.5,596.4,1139.9,598.2,1129.9,598.2z
										 M1241.7,596.9L1241.7,596.9c-2.4,0-4.6-0.6-6.5-1.7c-1.9-1.1-2.9-2.8-2.9-5l0,0V450.5H1196c-1.9,0-3.5-0.9-4.7-2.7
										c-1.2-1.8-1.8-3.9-1.8-6.3l0,0c0-2.1,0.5-4,1.6-5.8c1-1.8,2.7-2.7,4.9-2.7l0,0h91.5c2.2,0,3.9,0.9,4.9,2.7
										c1,1.8,1.6,3.7,1.6,5.8l0,0c0,2.2-0.5,4.3-1.6,6.2c-1,1.9-2.7,2.8-4.9,2.8l0,0h-36.3v139.7c0,2.2-1,3.9-2.9,5
										C1246.3,596.3,1244.1,596.9,1241.7,596.9z"/>
								</g>
							</g>
						</g>
					</g>
					<g transform="matrix(1,0,0,1,254.17110390352485,0)">
						<g>
							<path class="st1" d="M1252,637.9c-5.9-1.1-11.8-2.3-17.8-3.3c-28.7-4.7-57.4-9.4-86.1-14.1c-22.4-3.7-44.8-7.3-67.1-11
								c-0.5-0.1-1.1-0.3-1.8-0.5c6.5-39.6,13-79.1,19.4-118.4c0.7-0.1,0.9-0.3,1.1-0.2c5,0.9,10.9,0.4,14.6,3.1
								c3.5,2.6,4.6,8.5,6.8,12.9c2.4,5,4.7,9.9,7,15c0.9,2,2,3.1,4.4,3.4c4.8,0.5,9.5,1.5,14.9,2.4c-5-10.5-9.8-20.5-14.8-31.2
								c4.2,0.6,7.9,1.5,11.6,1.6c5.9,0.2,9,3,11.2,8.5c2.9,7.4,6.7,14.5,10,21.7c0.8,1.8,1.8,2.8,3.9,3c4.9,0.6,9.7,1.5,15.2,2.4
								c-5-10.6-9.8-20.5-14.8-31.2c4.1,0.6,7.6,1.4,11.2,1.6c5.9,0.3,9.4,2.7,11.5,8.5c2.8,7.5,6.7,14.5,10,21.7
								c0.9,1.9,2,2.8,4.2,3.1c4.8,0.5,9.5,1.5,14.9,2.4c-5-10.6-9.8-20.6-14.9-31.3c6.6,1.1,12.6,2,18.6,3.2
								c0.8,0.2,1.4,1.6,1.9,2.5c4.1,8.7,8.3,17.4,12.3,26.2c0.8,1.8,1.8,2.7,3.9,3c4.9,0.6,9.7,1.5,15.2,2.4
								c-5-10.6-9.8-20.6-14.8-31.2c5.5,0.9,10.5,1.6,15.4,2.4c0.1-0.2,0.2-0.4,0.3-0.6c-4.2-2.6-8.4-5.1-13.1-8
								c3.6-1.6,6.7-3,9.8-4.5c6.3-2.9,12.7-5.7,19-8.7c2.1-1,3.6-1,5.5,0.3c2.1,1.4,4.4,2.6,6.7,3.8c0,0.2,0,0.5,0,0.7
								c-4.6,7.5-9.1,14.9-13.6,22.4c-0.4,0.7-0.5,1.7-0.7,2.6c-4,24.3-8,48.7-12,73c-2.2,13.5-4.5,27-6.7,40.5
								C1253.3,637.9,1252.6,637.9,1252,637.9z M1255.6,555.9c-50.9-8.3-101.3-16.6-151.9-24.9c-0.6,3.7-1.1,6.9-1.6,10.3
								c50.7,8.3,101.1,16.6,151.8,24.9C1254.5,562.8,1255,559.6,1255.6,555.9z M1244.3,624.5c0.5-2.9,0.9-5.3,1.4-7.7
								c0.5-2-0.2-2.8-2.2-3.1c-12.7-2-25.5-4.1-38.2-6.2c-28.2-4.6-56.5-9.2-84.7-13.9c-8.7-1.4-17.4-2.8-26.4-4.3
								c-0.6,3.6-1.1,6.8-1.6,10.3C1143.3,607.9,1193.7,616.2,1244.3,624.5z"/>
							<path class="st1" d="M1120.3,432.3c4.9-8.2,9.8-16.2,14.8-24.6c10.2,6.1,20.1,12.1,30.6,18.4c-1.8,0.9-3.1,1.5-4.5,2.1
								c-8.2,3.7-16.3,7.4-24.5,11.2c-1.8,0.8-3.2,1-5-0.2C1128.1,436.8,1124.3,434.7,1120.3,432.3z"/>
							<path class="st1" d="M1213.9,488.5c10.4-4.7,20.1-9.2,29.8-13.5c0.8-0.4,2.1-0.6,2.8-0.2c5.1,2.9,10.2,6.1,15.8,9.4
								c-8.9,4.1-17.5,7.7-25.7,11.9c-4.3,2.2-7.7,2.2-11.6-0.8C1221.7,492.8,1217.9,490.9,1213.9,488.5z"/>
							<path class="st1" d="M1197.9,445.5c-10.6,4.8-20.4,9.4-30.3,13.8c-0.7,0.3-2,0.2-2.8-0.3c-5-2.9-9.8-5.8-15.3-9.1
								c4.1-1.9,7.6-3.5,11.2-5.2c6.1-2.8,12.2-5.6,18.4-8.4c0.9-0.4,2.3-0.6,3-0.2C1187.3,439,1192.2,442.1,1197.9,445.5z"/>
							<path class="st1" d="M1230.1,464.8c-7.9,3.6-15.6,6.4-22.6,10.5c-6.7,3.9-12.1,3.5-17.8-1.3c-2.2-1.8-4.9-3-7.9-4.8
								c1.6-0.8,2.8-1.4,3.9-2c8.3-3.8,16.6-7.5,24.8-11.3c1.9-0.9,3.4-1,5.2,0.2C1220.3,459.1,1225,461.7,1230.1,464.8z"/>
						</g>
					</g>
				</g>
			</g>
		</g>
		<rect x="1.4" y="-0.4" class="st2" width="1996.8" height="1248"/>
	</g>
</g>
<path class="st3" d="M1041.2,479.3V324.6h725.6v598h-725.6V770.1h15v137.5h695.6v-568h-695.6v139.7H1041.2z"/>
</svg>
